<svg width="16" height="21" viewBox="0 0 16 21" fill="none" xmlns="http://www.w3.org/2000/svg">
<path d="M8 10.269C8.55 10.269 9.02083 10.0679 9.4125 9.66573C9.80417 9.26352 10 8.78002 10 8.21523C10 7.65043 9.80417 7.16693 9.4125 6.76472C9.02083 6.36252 8.55 6.16142 8 6.16142C7.45 6.16142 6.97917 6.36252 6.5875 6.76472C6.19583 7.16693 6 7.65043 6 8.21523C6 8.78002 6.19583 9.26352 6.5875 9.66573C6.97917 10.0679 7.45 10.269 8 10.269ZM8 17.8168C10.0333 15.8999 11.5417 14.1584 12.525 12.5924C13.5083 11.0264 14 9.63577 14 8.42061C14 6.55506 13.4208 5.02755 12.2625 3.83805C11.1042 2.64855 9.68333 2.05381 8 2.05381C6.31667 2.05381 4.89583 2.64855 3.7375 3.83805C2.57917 5.02755 2 6.55506 2 8.42061C2 9.63577 2.49167 11.0264 3.475 12.5924C4.45833 14.1584 5.96667 15.8999 8 17.8168ZM8 20.5381C5.31667 18.1933 3.3125 16.0154 1.9875 14.0044C0.6625 11.9934 0 10.1321 0 8.42061C0 5.85335 0.804167 3.8081 2.4125 2.28486C4.02083 0.76162 5.88333 0 8 0C10.1167 0 11.9792 0.76162 13.5875 2.28486C15.1958 3.8081 16 5.85335 16 8.42061C16 10.1321 15.3375 11.9934 14.0125 14.0044C12.6875 16.0154 10.6833 18.1933 8 20.5381Z" fill="white"/>
</svg>
