<svg width="64" height="64" viewBox="0 0 64 64" fill="none" xmlns="http://www.w3.org/2000/svg">
<path fill-rule="evenodd" clip-rule="evenodd" d="M18.3191 6.91644C18.6873 6.34517 19.3204 6 20.0001 6H23.3614C23.4 6 23.4386 6.00112 23.4772 6.00336C23.9292 6.02958 24.3701 6.1537 24.7694 6.36713C25.1534 6.57244 25.4902 6.85566 25.7582 7.19848L41.4105 26.2282L48.6315 26.039C49.1467 26.0111 50.5694 26 50.9651 26C53.8792 26 56.4488 26.3901 58.3693 27.2351C60.276 28.0741 62.0001 29.6128 62.0001 32C62.0001 34.3882 60.2708 35.9292 58.3662 36.7701C56.4443 37.6186 53.875 38.0125 50.9664 38.0125C50.5664 38.0125 49.1531 38.0013 48.6334 37.9735L41.4128 37.7814L25.7241 56.8048C25.4561 57.1466 25.1198 57.429 24.7363 57.6337C24.3377 57.8465 23.8976 57.9703 23.4465 57.9966C23.4077 57.9989 23.3689 58 23.3301 58H20.0001C19.3205 58 18.6874 57.6549 18.3191 57.0837C17.9509 56.5125 17.8979 55.7933 18.1785 55.1743L26.2379 37.3932L14.143 37.1226L9.73187 42.4698C9.72204 42.4822 9.71169 42.4954 9.70082 42.5092C9.48731 42.781 9.07152 43.3101 8.42903 43.6358C7.73248 43.9889 7.00177 44 6.5001 44H4.26011C4.01438 44 2.75662 43.9704 2.19359 42.7312C1.96967 42.2383 1.98983 41.7899 2.01384 41.5697C2.03719 41.3555 2.08652 41.1738 2.11747 41.0695L4.59489 32.1876C4.6131 32.1224 4.63462 32.058 4.65936 31.9949C4.66281 31.9861 4.66281 31.9764 4.65936 31.9676C4.63437 31.9038 4.61266 31.8388 4.59433 31.7728L2.11781 22.8579C2.11746 22.8567 2.11704 22.8553 2.11658 22.8538C2.09474 22.7822 1.95397 22.321 2.03461 21.7968C2.08807 21.4493 2.26132 20.9186 2.76175 20.4993C3.25344 20.0873 3.79528 20.0063 4.13511 20.0063H6.4926C7.53573 20.0063 8.89008 20.4228 9.74257 21.5059L14.0643 26.7621L26.2296 26.5822L18.1786 8.8259C17.8979 8.20689 17.9508 7.48771 18.3191 6.91644ZM23.3728 10.5951L30.9432 27.2915C31.1062 27.6457 31.1763 28.0357 31.1466 28.4248C31.1164 28.8215 30.9835 29.2035 30.761 29.5333C30.5385 29.8631 30.234 30.1294 29.8775 30.3059C29.5529 30.4667 29.1953 30.5481 28.834 30.5441L13.6723 30.7684C13.2064 30.7794 12.7442 30.6821 12.3223 30.4839C11.9042 30.2875 11.5372 29.9976 11.2494 29.6368L6.64885 24.0415C6.64785 24.041 6.64682 24.0406 6.64576 24.0401C6.6305 24.0337 6.61244 24.0274 6.59265 24.0219L8.42553 30.6199C8.7409 31.5004 8.74076 32.4633 8.42511 33.3437L6.56854 39.9997C6.57433 39.9997 6.58002 39.9996 6.58562 39.9996C6.59342 39.9898 6.60153 39.9796 6.60996 39.969C6.61774 39.9592 6.62561 39.9494 6.63357 39.9398L11.3369 34.2384C11.6248 33.8813 11.9902 33.5942 12.4056 33.3991C12.8283 33.2005 13.2914 33.1026 13.7583 33.113L28.8436 33.4505L28.8443 33.4505C29.2247 33.4592 29.5972 33.5605 29.9296 33.7459C30.2619 33.9312 30.544 34.1948 30.7513 34.5139C30.9586 34.8329 31.0849 35.1978 31.1192 35.5767C31.1535 35.9557 31.0947 36.3373 30.9481 36.6884C30.9404 36.7068 30.9324 36.725 30.9242 36.7432L23.4076 53.3268L38.8255 34.6318C39.0923 34.2927 39.3982 34.1203 39.5316 34.051C39.7207 33.9527 39.8935 33.8965 40.0091 33.8642C40.2231 33.8045 40.4769 33.7625 40.7289 33.7625C40.7466 33.7625 40.7643 33.7627 40.782 33.7632L48.7695 33.9757C48.7922 33.9763 48.8148 33.9773 48.8373 33.9787C49.1775 33.9993 50.524 34.0125 50.9664 34.0125C53.5915 34.0125 55.539 33.6458 56.7506 33.1109C57.9794 32.5683 58.0001 32.1031 58.0001 32C58.0001 31.8959 57.9817 31.4347 56.7584 30.8964C55.5489 30.3643 53.601 30 50.9651 30C50.5218 30 49.1658 30.0133 48.8395 30.0336C48.8155 30.0351 48.7915 30.0362 48.7675 30.0368L40.672 30.2489C40.279 30.2636 39.8887 30.174 39.541 29.9889C39.2481 29.8329 38.9946 29.614 38.7982 29.349L23.3728 10.5951ZM5.95315 42.2042C5.95369 42.2024 5.95423 42.2006 5.95476 42.1989C5.9521 42.2085 5.95119 42.2107 5.95315 42.2042Z" fill="#00B8C4"/>
</svg>
