<svg width="60" height="60" viewBox="0 0 60 60" fill="none" xmlns="http://www.w3.org/2000/svg">
<g clip-path="url(#clip0_1108_3563)">
<path d="M47.5 7.5H12.5C9.75 7.5 7.5 9.75 7.5 12.5V30C7.5 32.75 9.75 35 12.5 35H47.5C50.25 35 52.5 32.75 52.5 30V12.5C52.5 9.75 50.25 7.5 47.5 7.5ZM12.5 25H20.325C20.85 26.95 22 28.675 23.5 30H12.5V25ZM47.5 30H36.5C38 28.675 39.15 26.95 39.675 25H47.5V30ZM47.5 20H35V22.5C35 25.175 32.675 27.5 30 27.5C27.325 27.5 25 25.175 25 22.5V20H12.5V12.5H47.5V20ZM42.5 37.5H35V40C35 41.175 34.525 42.25 33.8 43.125C32.875 44.25 31.5 45 30 45C28.5 45 27.125 44.25 26.2 43.125C25.475 42.25 25 41.175 25 40V37.5H7.5V47.5C7.5 50.25 9.75 52.5 12.5 52.5H47.5C50.25 52.5 52.5 50.25 52.5 47.5V37.5H42.5ZM12.5 42.5H20.325C20.375 42.725 20.475 42.925 20.55 43.125C21.15 44.825 22.175 46.325 23.5 47.5H12.5V42.5ZM47.5 47.5H36.5C37.85 46.325 38.875 44.825 39.45 43.125C39.525 42.925 39.625 42.725 39.675 42.5H47.5V47.5Z" fill="#00B8C4"/>
</g>
<defs>
<clipPath id="clip0_1108_3563">
<rect width="60" height="60" fill="white"/>
</clipPath>
</defs>
</svg>
