<svg width="40" height="40" viewBox="0 0 40 40" fill="none" xmlns="http://www.w3.org/2000/svg">
<path d="M0 5C0 4.33696 0.263392 3.70107 0.732233 3.23223C1.20107 2.76339 1.83696 2.5 2.5 2.5H37.5C38.163 2.5 38.7989 2.76339 39.2678 3.23223C39.7366 3.70107 40 4.33696 40 5V10C40 10.663 39.7366 11.2989 39.2678 11.7678C38.7989 12.2366 38.163 12.5 37.5 12.5V31.25C37.5 32.9076 36.8415 34.4973 35.6694 35.6694C34.4973 36.8415 32.9076 37.5 31.25 37.5H8.75C7.0924 37.5 5.50269 36.8415 4.33058 35.6694C3.15848 34.4973 2.5 32.9076 2.5 31.25V12.5C1.83696 12.5 1.20107 12.2366 0.732233 11.7678C0.263392 11.2989 0 10.663 0 10V5ZM5 12.5V31.25C5 32.2446 5.39509 33.1984 6.09835 33.9017C6.80161 34.6049 7.75544 35 8.75 35H31.25C32.2446 35 33.1984 34.6049 33.9016 33.9017C34.6049 33.1984 35 32.2446 35 31.25V12.5H5ZM37.5 5H2.5V10H37.5V5ZM12.5 18.75C12.5 18.4185 12.6317 18.1005 12.8661 17.8661C13.1005 17.6317 13.4185 17.5 13.75 17.5H26.25C26.5815 17.5 26.8995 17.6317 27.1339 17.8661C27.3683 18.1005 27.5 18.4185 27.5 18.75C27.5 19.0815 27.3683 19.3995 27.1339 19.6339C26.8995 19.8683 26.5815 20 26.25 20H13.75C13.4185 20 13.1005 19.8683 12.8661 19.6339C12.6317 19.3995 12.5 19.0815 12.5 18.75Z" fill="#00B8C4"/>
</svg>
