<svg width="32" height="32" viewBox="0 0 32 32" fill="none" xmlns="http://www.w3.org/2000/svg">
<path fill-rule="evenodd" clip-rule="evenodd" d="M30 16C30 15.7348 29.8946 15.4804 29.7071 15.2929C29.5196 15.1054 29.2652 15 29 15H5.414L11.708 8.70801C11.8958 8.52024 12.0013 8.26556 12.0013 8.00001C12.0013 7.73446 11.8958 7.47979 11.708 7.29201C11.5202 7.10424 11.2656 6.99875 11 6.99875C10.7344 6.99875 10.4798 7.10424 10.292 7.29201L2.292 15.292C2.19887 15.3849 2.12499 15.4953 2.07458 15.6167C2.02416 15.7382 1.99821 15.8685 1.99821 16C1.99821 16.1315 2.02416 16.2618 2.07458 16.3833C2.12499 16.5048 2.19887 16.6151 2.292 16.708L10.292 24.708C10.4798 24.8958 10.7344 25.0013 11 25.0013C11.2656 25.0013 11.5202 24.8958 11.708 24.708C11.8958 24.5202 12.0013 24.2656 12.0013 24C12.0013 23.7345 11.8958 23.4798 11.708 23.292L5.414 17H29C29.2652 17 29.5196 16.8947 29.7071 16.7071C29.8946 16.5196 30 16.2652 30 16Z" fill="#00B8C4"/>
</svg>
