<svg width="25" height="17" viewBox="0 0 25 17" fill="none" xmlns="http://www.w3.org/2000/svg">
<path fill-rule="evenodd" clip-rule="evenodd" d="M0 8.5C0 8.26429 0.0936373 8.03823 0.260313 7.87155C0.426989 7.70487 0.653049 7.61124 0.888764 7.61124H21.8512L16.2573 2.01913C16.0904 1.85225 15.9966 1.6259 15.9966 1.38989C15.9966 1.15387 16.0904 0.927528 16.2573 0.760642C16.4242 0.593755 16.6505 0.5 16.8865 0.5C17.1225 0.5 17.3489 0.593755 17.5158 0.760642L24.6259 7.87075C24.7086 7.95331 24.7743 8.05139 24.8191 8.15937C24.8639 8.26734 24.887 8.3831 24.887 8.5C24.887 8.6169 24.8639 8.73266 24.8191 8.84063C24.7743 8.94861 24.7086 9.04669 24.6259 9.12924L17.5158 16.2394C17.3489 16.4062 17.1225 16.5 16.8865 16.5C16.6505 16.5 16.4242 16.4062 16.2573 16.2394C16.0904 16.0725 15.9966 15.8461 15.9966 15.6101C15.9966 15.3741 16.0904 15.1478 16.2573 14.9809L21.8512 9.38876H0.888764C0.653049 9.38876 0.426989 9.29513 0.260313 9.12845C0.0936373 8.96178 0 8.73571 0 8.5Z" fill="white"/>
</svg>
