<svg width="60" height="60" viewBox="0 0 60 60" fill="none" xmlns="http://www.w3.org/2000/svg">
<g clip-path="url(#clip0_1108_3599)">
<path d="M54.375 11.25C54.8723 11.25 55.3492 11.4475 55.7008 11.7992C56.0525 12.1508 56.25 12.6277 56.25 13.125V46.875C56.25 47.3723 56.0525 47.8492 55.7008 48.2008C55.3492 48.5525 54.8723 48.75 54.375 48.75H5.625C5.12772 48.75 4.65081 48.5525 4.29917 48.2008C3.94754 47.8492 3.75 47.3723 3.75 46.875V13.125C3.75 12.6277 3.94754 12.1508 4.29917 11.7992C4.65081 11.4475 5.12772 11.25 5.625 11.25H54.375ZM5.625 7.5C4.13316 7.5 2.70242 8.09263 1.64752 9.14752C0.592632 10.2024 0 11.6332 0 13.125L0 46.875C0 48.3668 0.592632 49.7976 1.64752 50.8525C2.70242 51.9074 4.13316 52.5 5.625 52.5H54.375C55.8668 52.5 57.2976 51.9074 58.3525 50.8525C59.4074 49.7976 60 48.3668 60 46.875V13.125C60 11.6332 59.4074 10.2024 58.3525 9.14752C57.2976 8.09263 55.8668 7.5 54.375 7.5H5.625Z" fill="#00B8C4"/>
<path d="M26.2504 20.6249C26.2504 20.1277 26.448 19.6507 26.7996 19.2991C27.1512 18.9475 27.6281 18.7499 28.1254 18.7499H46.8754C47.3727 18.7499 47.8496 18.9475 48.2012 19.2991C48.5529 19.6507 48.7504 20.1277 48.7504 20.6249C48.7504 21.1222 48.5529 21.5991 48.2012 21.9508C47.8496 22.3024 47.3727 22.4999 46.8754 22.4999H28.1254C27.6281 22.4999 27.1512 22.3024 26.7996 21.9508C26.448 21.5991 26.2504 21.1222 26.2504 20.6249ZM20.6404 17.4224C20.815 17.5966 20.9536 17.8035 21.0481 18.0313C21.1426 18.2591 21.1913 18.5033 21.1913 18.7499C21.1913 18.9966 21.1426 19.2408 21.0481 19.4686C20.9536 19.6964 20.815 19.9033 20.6404 20.0774L15.0154 25.7024C14.8412 25.877 14.6343 26.0156 14.4065 26.1101C14.1787 26.2046 13.9345 26.2533 13.6879 26.2533C13.4413 26.2533 13.1971 26.2046 12.9693 26.1101C12.7415 26.0156 12.5346 25.877 12.3604 25.7024L10.4854 23.8274C10.3111 23.6531 10.1728 23.4461 10.0785 23.2184C9.98411 22.9906 9.93555 22.7465 9.93555 22.4999C9.93555 22.002 10.1333 21.5245 10.4854 21.1724C10.8375 20.8204 11.315 20.6226 11.8129 20.6226C12.3108 20.6226 12.7883 20.8204 13.1404 21.1724L13.6879 21.7237L17.9854 17.4224C18.1596 17.2478 18.3665 17.1093 18.5943 17.0148C18.8221 16.9202 19.0663 16.8716 19.3129 16.8716C19.5595 16.8716 19.8037 16.9202 20.0315 17.0148C20.2593 17.1093 20.4662 17.2478 20.6404 17.4224ZM26.2504 35.6249C26.2504 35.1277 26.448 34.6507 26.7996 34.2991C27.1512 33.9475 27.6281 33.7499 28.1254 33.7499H46.8754C47.3727 33.7499 47.8496 33.9475 48.2012 34.2991C48.5529 34.6507 48.7504 35.1277 48.7504 35.6249C48.7504 36.1222 48.5529 36.5991 48.2012 36.9508C47.8496 37.3024 47.3727 37.4999 46.8754 37.4999H28.1254C27.6281 37.4999 27.1512 37.3024 26.7996 36.9508C26.448 36.5991 26.2504 36.1222 26.2504 35.6249ZM20.6404 32.4224C20.815 32.5966 20.9536 32.8035 21.0481 33.0313C21.1426 33.2591 21.1913 33.5033 21.1913 33.7499C21.1913 33.9966 21.1426 34.2408 21.0481 34.4686C20.9536 34.6964 20.815 34.9033 20.6404 35.0774L15.0154 40.7024C14.8412 40.877 14.6343 41.0156 14.4065 41.1101C14.1787 41.2046 13.9345 41.2533 13.6879 41.2533C13.4413 41.2533 13.1971 41.2046 12.9693 41.1101C12.7415 41.0156 12.5346 40.877 12.3604 40.7024L10.4854 38.8274C10.3111 38.6531 10.1728 38.4461 10.0785 38.2184C9.98411 37.9906 9.93555 37.7465 9.93555 37.4999C9.93555 37.2534 9.98411 37.0093 10.0785 36.7815C10.1728 36.5537 10.3111 36.3468 10.4854 36.1724C10.6597 35.9981 10.8667 35.8598 11.0945 35.7655C11.3223 35.6711 11.5664 35.6226 11.8129 35.6226C12.0595 35.6226 12.3036 35.6711 12.5314 35.7655C12.7591 35.8598 12.9661 35.9981 13.1404 36.1724L13.6879 36.7237L17.9854 32.4224C18.1596 32.2478 18.3665 32.1093 18.5943 32.0148C18.8221 31.9202 19.0663 31.8716 19.3129 31.8716C19.5595 31.8716 19.8037 31.9202 20.0315 32.0148C20.2593 32.1093 20.4662 32.2478 20.6404 32.4224Z" fill="#00B8C4"/>
</g>
<defs>
<clipPath id="clip0_1108_3599">
<rect width="60" height="60" fill="white"/>
</clipPath>
</defs>
</svg>
