<svg width="38" height="34" viewBox="0 0 38 34" fill="none" xmlns="http://www.w3.org/2000/svg">
<path fill-rule="evenodd" clip-rule="evenodd" d="M2.75001 3.25002C7.81585 3.2732 11.3469 3.91005 13.722 5.04478C16.0255 6.14533 17.2591 7.71785 17.7883 9.80697C17.9288 10.3616 18.4279 10.75 19 10.75C19.5721 10.75 20.0712 10.3616 20.2117 9.80697C20.741 7.71785 21.9746 6.14533 24.278 5.04478C26.6531 3.91005 30.1842 3.27318 35.25 3.25001V25.75C26.2275 25.75 21.7964 27.3673 18.9999 30.1319C16.2132 27.38 11.7761 25.7528 2.77339 25.75C2.76274 25.7224 2.75001 25.6739 2.75001 25.5992V3.25002ZM1.79475 0.938148C2.09919 0.812715 2.42545 0.748776 2.75472 0.750018L2.75561 0.750021C7.96568 0.773385 11.9329 1.41929 14.7997 2.78902C16.6644 3.67991 18.0512 4.87268 19 6.35219C19.9488 4.87268 21.3356 3.67991 23.2003 2.78902C26.0672 1.41929 30.0343 0.773385 35.2444 0.750021L35.2453 0.750018C35.5746 0.748776 35.9008 0.812716 36.2053 0.938148C36.5097 1.06358 36.7863 1.24803 37.0192 1.48086C37.252 1.71369 37.4364 1.9903 37.5619 2.29475C37.6869 2.59826 37.7509 2.92346 37.75 3.25171V25.75C37.75 26.413 37.4866 27.0489 37.0178 27.5178C36.5489 27.9866 35.913 28.25 35.25 28.25C25.3981 28.25 22.0112 30.2368 19.9761 32.7808C19.7388 33.0775 19.3796 33.2501 18.9997 33.25C18.6199 33.2499 18.2607 33.0771 18.0235 32.7804C16.0023 30.2513 12.6013 28.25 2.75001 28.25C1.99601 28.25 1.3362 27.9308 0.883801 27.3994C0.447165 26.8866 0.250009 26.2357 0.250009 25.5992V3.25197C0.249133 2.92363 0.313064 2.59834 0.438148 2.29475C0.563581 1.9903 0.748029 1.71369 0.98086 1.48086C1.21369 1.24803 1.4903 1.06358 1.79475 0.938148Z" fill="#A1A1AA"/>
</svg>
