<svg width="128" height="128" viewBox="0 0 128 128" fill="none" xmlns="http://www.w3.org/2000/svg">
<g clip-path="url(#clip0_535_28)">
<path d="M52 8C48.8174 8 45.7652 9.26428 43.5147 11.5147C41.2643 13.7652 40 16.8174 40 20V24H12C8.8174 24 5.76515 25.2643 3.51472 27.5147C1.26428 29.7652 0 32.8174 0 36L0 100C0 103.183 1.26428 106.235 3.51472 108.485C5.76515 110.736 8.8174 112 12 112H116C119.183 112 122.235 110.736 124.485 108.485C126.736 106.235 128 103.183 128 100V36C128 32.8174 126.736 29.7652 124.485 27.5147C122.235 25.2643 119.183 24 116 24H88V20C88 16.8174 86.7357 13.7652 84.4853 11.5147C82.2348 9.26428 79.1826 8 76 8H52ZM52 16H76C77.0609 16 78.0783 16.4214 78.8284 17.1716C79.5786 17.9217 80 18.9391 80 20V24H48V20C48 18.9391 48.4214 17.9217 49.1716 17.1716C49.9217 16.4214 50.9391 16 52 16ZM67.088 71.312L120 57.208V100C120 101.061 119.579 102.078 118.828 102.828C118.078 103.579 117.061 104 116 104H12C10.9391 104 9.92172 103.579 9.17157 102.828C8.42143 102.078 8 101.061 8 100V57.2L60.912 71.312C62.9354 71.8508 65.0646 71.8508 67.088 71.312ZM12 32H116C117.061 32 118.078 32.4214 118.828 33.1716C119.579 33.9217 120 34.9391 120 36V48.928L65.032 63.584C64.3558 63.7646 63.6442 63.7646 62.968 63.584L8 48.928V36C8 34.9391 8.42143 33.9217 9.17157 33.1716C9.92172 32.4214 10.9391 32 12 32Z" fill="#00B8C4"/>
</g>
<defs>
<clipPath id="clip0_535_28">
<rect width="128" height="128" fill="white"/>
</clipPath>
</defs>
</svg>
