<svg width="64" height="64" viewBox="0 0 64 64" fill="none" xmlns="http://www.w3.org/2000/svg">
<path fill-rule="evenodd" clip-rule="evenodd" d="M22 50C23.1046 50 24 50.8954 24 52V60C24 61.1046 23.1046 62 22 62C20.8954 62 20 61.1046 20 60V52C20 50.8954 20.8954 50 22 50Z" fill="#00B8C4"/>
<path fill-rule="evenodd" clip-rule="evenodd" d="M10 6C9.46957 6 8.96086 6.21071 8.58579 6.58579C8.21071 6.96086 8 7.46957 8 8V58H36V8C36 7.46957 35.7893 6.96086 35.4142 6.58579C35.0391 6.21071 34.5304 6 34 6H10ZM10 2H34C35.5913 2 37.1174 2.63214 38.2426 3.75736C39.3679 4.88258 40 6.4087 40 8V59.5C40 60.163 39.7366 60.7989 39.2678 61.2678C38.7989 61.7366 38.163 62 37.5 62H6C4.89543 62 4 61.1046 4 60V8C4 6.4087 4.63214 4.88258 5.75736 3.75736C6.88258 2.63214 8.4087 2 10 2Z" fill="#00B8C4"/>
<path fill-rule="evenodd" clip-rule="evenodd" d="M37.1716 23.1716C37.9217 22.4214 38.9391 22 40 22H54C55.5913 22 57.1174 22.6321 58.2426 23.7574C59.3679 24.8826 60 26.4087 60 28V60C60 61.1046 59.1046 62 58 62H38C36.8954 62 36 61.1046 36 60V26C36 24.9391 36.4214 23.9217 37.1716 23.1716ZM54 26L40 26L40 58H56V28C56 27.4696 55.7893 26.9609 55.4142 26.5858C55.0391 26.2107 54.5304 26 54 26Z" fill="#00B8C4"/>
<path d="M12.2601 53.9838C11.8459 54.038 11.4251 53.9611 11.0568 53.764C10.6885 53.5668 10.3912 53.2593 10.2066 52.8845C10.022 52.5098 9.95938 52.0867 10.0275 51.6745C10.0957 51.2624 10.2911 50.8819 10.5865 50.5865C10.8819 50.2911 11.2624 50.0957 11.6745 50.0275C12.0867 49.9594 12.5098 50.022 12.8845 50.2066C13.2593 50.3912 13.5668 50.6885 13.764 51.0568C13.9611 51.4251 14.038 51.8459 13.9838 52.2601C13.9267 52.6972 13.7267 53.1032 13.4149 53.4149C13.1032 53.7267 12.6972 53.9267 12.2601 53.9838Z" fill="#00B8C4"/>
<path d="M12.2601 43.9838C11.8459 44.038 11.4251 43.9611 11.0568 43.764C10.6885 43.5668 10.3912 43.2593 10.2066 42.8845C10.022 42.5098 9.95938 42.0867 10.0275 41.6745C10.0957 41.2624 10.2911 40.8819 10.5865 40.5865C10.8819 40.2911 11.2624 40.0957 11.6745 40.0275C12.0867 39.9594 12.5098 40.022 12.8845 40.2066C13.2593 40.3912 13.5668 40.6885 13.764 41.0568C13.9611 41.4251 14.038 41.8459 13.9838 42.2601C13.9267 42.6972 13.7267 43.1032 13.4149 43.4149C13.1032 43.7267 12.6972 43.9267 12.2601 43.9838Z" fill="#00B8C4"/>
<path d="M12.2601 33.9838C11.8459 34.038 11.4251 33.9611 11.0568 33.764C10.6885 33.5668 10.3912 33.2593 10.2066 32.8845C10.022 32.5098 9.95938 32.0867 10.0275 31.6745C10.0957 31.2624 10.2911 30.8819 10.5865 30.5865C10.8819 30.2911 11.2624 30.0957 11.6745 30.0275C12.0867 29.9594 12.5098 30.022 12.8845 30.2066C13.2593 30.3912 13.5668 30.6885 13.764 31.0568C13.9611 31.4251 14.038 31.8459 13.9838 32.2601C13.9267 32.6972 13.7267 33.1032 13.4149 33.4149C13.1032 33.7267 12.6972 33.9267 12.2601 33.9838Z" fill="#00B8C4"/>
<path d="M12.2601 23.9838C11.8459 24.038 11.4251 23.9611 11.0568 23.764C10.6885 23.5668 10.3912 23.2593 10.2066 22.8845C10.022 22.5098 9.95938 22.0867 10.0275 21.6745C10.0957 21.2624 10.2911 20.8819 10.5865 20.5865C10.8819 20.2911 11.2624 20.0957 11.6745 20.0275C12.0867 19.9594 12.5098 20.022 12.8845 20.2066C13.2593 20.3912 13.5668 20.6885 13.764 21.0568C13.9611 21.4251 14.038 21.8459 13.9838 22.2601C13.9267 22.6972 13.7267 23.1032 13.4149 23.4149C13.1032 23.7267 12.6972 23.9267 12.2601 23.9838Z" fill="#00B8C4"/>
<path d="M12.2601 13.9838C11.8459 14.038 11.4251 13.9611 11.0568 13.764C10.6885 13.5668 10.3912 13.2593 10.2066 12.8845C10.022 12.5098 9.95938 12.0867 10.0275 11.6745C10.0957 11.2624 10.2911 10.8819 10.5865 10.5865C10.8819 10.2911 11.2624 10.0957 11.6745 10.0275C12.0867 9.95938 12.5098 10.022 12.8845 10.2066C13.2593 10.3912 13.5668 10.6885 13.764 11.0568C13.9611 11.4251 14.038 11.8459 13.9838 12.2601C13.9267 12.6972 13.7267 13.1032 13.4149 13.4149C13.1032 13.7267 12.6972 13.9267 12.2601 13.9838Z" fill="#00B8C4"/>
<path d="M22.2601 43.9838C21.8459 44.038 21.4251 43.9611 21.0568 43.764C20.6885 43.5668 20.3912 43.2593 20.2066 42.8845C20.022 42.5098 19.9594 42.0867 20.0275 41.6745C20.0957 41.2624 20.2911 40.8819 20.5865 40.5865C20.8819 40.2911 21.2624 40.0957 21.6745 40.0275C22.0867 39.9594 22.5098 40.022 22.8845 40.2066C23.2593 40.3912 23.5668 40.6885 23.764 41.0568C23.9611 41.4251 24.038 41.8459 23.9838 42.2601C23.9267 42.6972 23.7267 43.1032 23.4149 43.4149C23.1032 43.7267 22.6972 43.9267 22.2601 43.9838Z" fill="#00B8C4"/>
<path d="M22.2601 33.9838C21.8459 34.038 21.4251 33.9611 21.0568 33.764C20.6885 33.5668 20.3912 33.2593 20.2066 32.8845C20.022 32.5098 19.9594 32.0867 20.0275 31.6745C20.0957 31.2624 20.2911 30.8819 20.5865 30.5865C20.8819 30.2911 21.2624 30.0957 21.6745 30.0275C22.0867 29.9594 22.5098 30.022 22.8845 30.2066C23.2593 30.3912 23.5668 30.6885 23.764 31.0568C23.9611 31.4251 24.038 31.8459 23.9838 32.2601C23.9267 32.6972 23.7267 33.1032 23.4149 33.4149C23.1032 33.7267 22.6972 33.9267 22.2601 33.9838Z" fill="#00B8C4"/>
<path d="M22.2601 23.9838C21.8459 24.038 21.4251 23.9611 21.0568 23.764C20.6885 23.5668 20.3912 23.2593 20.2066 22.8845C20.022 22.5098 19.9594 22.0867 20.0275 21.6745C20.0957 21.2624 20.2911 20.8819 20.5865 20.5865C20.8819 20.2911 21.2624 20.0957 21.6745 20.0275C22.0867 19.9594 22.5098 20.022 22.8845 20.2066C23.2593 20.3912 23.5668 20.6885 23.764 21.0568C23.9611 21.4251 24.038 21.8459 23.9838 22.2601C23.9267 22.6972 23.7267 23.1032 23.4149 23.4149C23.1032 23.7267 22.6972 23.9267 22.2601 23.9838Z" fill="#00B8C4"/>
<path d="M22.2601 13.9838C21.8459 14.038 21.4251 13.9611 21.0568 13.764C20.6885 13.5668 20.3912 13.2593 20.2066 12.8845C20.022 12.5098 19.9594 12.0867 20.0275 11.6745C20.0957 11.2624 20.2911 10.8819 20.5865 10.5865C20.8819 10.2911 21.2624 10.0957 21.6745 10.0275C22.0867 9.95938 22.5098 10.022 22.8845 10.2066C23.2593 10.3912 23.5668 10.6885 23.764 11.0568C23.9611 11.4251 24.038 11.8459 23.9838 12.2601C23.9267 12.6972 23.7267 13.1032 23.4149 13.4149C23.1032 13.7267 22.6972 13.9267 22.2601 13.9838Z" fill="#00B8C4"/>
<path d="M32.2601 53.9838C31.8459 54.038 31.4251 53.9611 31.0568 53.764C30.6885 53.5668 30.3912 53.2593 30.2066 52.8845C30.022 52.5098 29.9594 52.0867 30.0275 51.6745C30.0957 51.2624 30.2911 50.8819 30.5865 50.5865C30.8819 50.2911 31.2624 50.0957 31.6745 50.0275C32.0867 49.9594 32.5098 50.022 32.8845 50.2066C33.2593 50.3912 33.5668 50.6885 33.764 51.0568C33.9611 51.4251 34.038 51.8459 33.9838 52.2601C33.9267 52.6972 33.7267 53.1032 33.4149 53.4149C33.1032 53.7267 32.6972 53.9267 32.2601 53.9838Z" fill="#00B8C4"/>
<path d="M32.2601 43.9838C31.8459 44.038 31.4251 43.9611 31.0568 43.764C30.6885 43.5668 30.3912 43.2593 30.2066 42.8845C30.022 42.5098 29.9594 42.0867 30.0275 41.6745C30.0957 41.2624 30.2911 40.8819 30.5865 40.5865C30.8819 40.2911 31.2624 40.0957 31.6745 40.0275C32.0867 39.9594 32.5098 40.022 32.8845 40.2066C33.2593 40.3912 33.5668 40.6885 33.764 41.0568C33.9611 41.4251 34.038 41.8459 33.9838 42.2601C33.9267 42.6972 33.7267 43.1032 33.4149 43.4149C33.1032 43.7267 32.6972 43.9267 32.2601 43.9838Z" fill="#00B8C4"/>
<path d="M32.2601 33.9838C31.8459 34.038 31.4251 33.9611 31.0568 33.764C30.6885 33.5668 30.3912 33.2593 30.2066 32.8845C30.022 32.5098 29.9594 32.0867 30.0275 31.6745C30.0957 31.2624 30.2911 30.8819 30.5865 30.5865C30.8819 30.2911 31.2624 30.0957 31.6745 30.0275C32.0867 29.9594 32.5098 30.022 32.8845 30.2066C33.2593 30.3912 33.5668 30.6885 33.764 31.0568C33.9611 31.4251 34.038 31.8459 33.9838 32.2601C33.9267 32.6972 33.7267 33.1032 33.4149 33.4149C33.1032 33.7267 32.6972 33.9267 32.2601 33.9838Z" fill="#00B8C4"/>
<path d="M33.4169 23.4159C34.1955 22.6373 34.1923 21.3717 33.4098 20.5892C32.6273 19.8067 31.3617 19.8035 30.5831 20.5821C29.8045 21.3608 29.8077 22.6263 30.5902 23.4088C31.3727 24.1913 32.6383 24.1945 33.4169 23.4159Z" fill="#00B8C4"/>
<path d="M32.2601 13.9838C31.8459 14.038 31.4251 13.9611 31.0568 13.764C30.6885 13.5668 30.3912 13.2593 30.2066 12.8845C30.022 12.5098 29.9594 12.0867 30.0275 11.6745C30.0957 11.2624 30.2911 10.8819 30.5865 10.5865C30.8819 10.2911 31.2624 10.0957 31.6745 10.0275C32.0867 9.95938 32.5098 10.022 32.8845 10.2066C33.2593 10.3912 33.5668 10.6885 33.764 11.0568C33.9611 11.4251 34.038 11.8459 33.9838 12.2601C33.9267 12.6972 33.7267 13.1032 33.4149 13.4149C33.1032 13.7267 32.6972 13.9267 32.2601 13.9838Z" fill="#00B8C4"/>
<path d="M50 50C49.6044 50 49.2178 50.1173 48.8889 50.3371C48.56 50.5568 48.3036 50.8692 48.1522 51.2346C48.0009 51.6001 47.9613 52.0022 48.0384 52.3902C48.1156 52.7781 48.3061 53.1345 48.5858 53.4142C48.8655 53.6939 49.2219 53.8844 49.6098 53.9616C49.9978 54.0387 50.3999 53.9991 50.7654 53.8478C51.1308 53.6964 51.4432 53.44 51.6629 53.1111C51.8827 52.7822 52 52.3956 52 52C52 51.4696 51.7893 50.9609 51.4142 50.5858C51.0391 50.2107 50.5304 50 50 50Z" fill="#00B8C4"/>
<path d="M50 40C49.6044 40 49.2178 40.1173 48.8889 40.3371C48.56 40.5568 48.3036 40.8692 48.1522 41.2346C48.0009 41.6001 47.9613 42.0022 48.0384 42.3902C48.1156 42.7781 48.3061 43.1345 48.5858 43.4142C48.8655 43.6939 49.2219 43.8844 49.6098 43.9616C49.9978 44.0387 50.3999 43.9991 50.7654 43.8478C51.1308 43.6964 51.4432 43.44 51.6629 43.1111C51.8827 42.7822 52 42.3956 52 42C52 41.4696 51.7893 40.9609 51.4142 40.5858C51.0391 40.2107 50.5304 40 50 40Z" fill="#00B8C4"/>
<path d="M50 30C49.6044 30 49.2178 30.1173 48.8889 30.3371C48.56 30.5568 48.3036 30.8692 48.1522 31.2346C48.0009 31.6001 47.9613 32.0022 48.0384 32.3902C48.1156 32.7781 48.3061 33.1345 48.5858 33.4142C48.8655 33.6939 49.2219 33.8844 49.6098 33.9616C49.9978 34.0387 50.3999 33.9991 50.7654 33.8478C51.1308 33.6964 51.4432 33.44 51.6629 33.1111C51.8827 32.7822 52 32.3956 52 32C52 31.4696 51.7893 30.9609 51.4142 30.5858C51.0391 30.2107 50.5304 30 50 30Z" fill="#00B8C4"/>
<path d="M42 50C41.6044 50 41.2178 50.1173 40.8889 50.3371C40.56 50.5568 40.3036 50.8692 40.1522 51.2346C40.0009 51.6001 39.9613 52.0022 40.0384 52.3902C40.1156 52.7781 40.3061 53.1345 40.5858 53.4142C40.8655 53.6939 41.2219 53.8844 41.6098 53.9616C41.9978 54.0387 42.3999 53.9991 42.7654 53.8478C43.1308 53.6964 43.4432 53.44 43.6629 53.1111C43.8827 52.7822 44 52.3956 44 52C44 51.4696 43.7893 50.9609 43.4142 50.5858C43.0391 50.2107 42.5304 50 42 50Z" fill="#00B8C4"/>
<path d="M42 40C41.6044 40 41.2178 40.1173 40.8889 40.3371C40.56 40.5568 40.3036 40.8692 40.1522 41.2346C40.0009 41.6001 39.9613 42.0022 40.0384 42.3902C40.1156 42.7781 40.3061 43.1345 40.5858 43.4142C40.8655 43.6939 41.2219 43.8844 41.6098 43.9616C41.9978 44.0387 42.3999 43.9991 42.7654 43.8478C43.1308 43.6964 43.4432 43.44 43.6629 43.1111C43.8827 42.7822 44 42.3956 44 42C44 41.4696 43.7893 40.9609 43.4142 40.5858C43.0391 40.2107 42.5304 40 42 40Z" fill="#00B8C4"/>
<path d="M42 30C41.6044 30 41.2178 30.1173 40.8889 30.3371C40.56 30.5568 40.3036 30.8692 40.1522 31.2346C40.0009 31.6001 39.9613 32.0022 40.0384 32.3902C40.1156 32.7781 40.3061 33.1345 40.5858 33.4142C40.8655 33.6939 41.2219 33.8844 41.6098 33.9616C41.9978 34.0387 42.3999 33.9991 42.7654 33.8478C43.1308 33.6964 43.4432 33.44 43.6629 33.1111C43.8827 32.7822 44 32.3956 44 32C44 31.4696 43.7893 30.9609 43.4142 30.5858C43.0391 30.2107 42.5304 30 42 30Z" fill="#00B8C4"/>
</svg>
