<svg width="60" height="60" viewBox="0 0 60 60" fill="none" xmlns="http://www.w3.org/2000/svg">
<path d="M30 41.25C27.775 41.25 25.5999 40.5902 23.7498 39.354C21.8998 38.1179 20.4578 36.3609 19.6064 34.3052C18.7549 32.2495 18.5321 29.9875 18.9662 27.8052C19.4003 25.623 20.4717 23.6184 22.0451 22.0451C23.6184 20.4717 25.623 19.4003 27.8052 18.9662C29.9875 18.5321 32.2495 18.7549 34.3052 19.6064C36.3609 20.4578 38.1179 21.8998 39.354 23.7498C40.5902 25.5999 41.25 27.775 41.25 30C41.2661 31.4818 40.986 32.952 40.4264 34.3241C39.8667 35.6963 39.0386 36.9429 37.9908 37.9908C36.9429 39.0386 35.6963 39.8667 34.3241 40.4264C32.952 40.986 31.4818 41.2661 30 41.25ZM30 22.5C29.0089 22.4774 28.0235 22.656 27.1034 23.025C26.1833 23.3939 25.3475 23.9455 24.6465 24.6465C23.9455 25.3475 23.3939 26.1833 23.025 27.1034C22.656 28.0235 22.4774 29.0089 22.5 30C22.4774 30.9911 22.656 31.9765 23.025 32.8966C23.3939 33.8167 23.9455 34.6525 24.6465 35.3535C25.3475 36.0545 26.1833 36.6061 27.1034 36.9751C28.0235 37.344 29.0089 37.5226 30 37.5C30.9911 37.5226 31.9765 37.344 32.8966 36.9751C33.8167 36.6061 34.6525 36.0545 35.3535 35.3535C36.0545 34.6525 36.6061 33.8167 36.9751 32.8966C37.344 31.9765 37.5226 30.9911 37.5 30C37.5226 29.0089 37.344 28.0235 36.9751 27.1034C36.6061 26.1833 36.0545 25.3475 35.3535 24.6465C34.6525 23.9455 33.8167 23.3939 32.8966 23.025C31.9765 22.656 30.9911 22.4774 30 22.5Z" fill="#00B8C4"/>
<path d="M54.9479 20.7075L50.5229 13.0425C50.0898 12.291 49.4092 11.713 48.5974 11.4073C47.7857 11.1016 46.893 11.0871 46.0717 11.3662L41.5079 12.9094C40.7214 12.3799 39.8995 11.905 39.0479 11.4881L38.1048 6.765C37.9348 5.91458 37.4753 5.14936 36.8046 4.59964C36.1338 4.04991 35.2933 3.74966 34.426 3.75H25.576C24.7088 3.74966 23.8682 4.04991 23.1975 4.59964C22.5268 5.14936 22.0673 5.91458 21.8973 6.765L20.9542 11.4881C20.093 11.9004 19.2616 12.3722 18.466 12.9L13.9285 11.3662C13.1077 11.0881 12.2159 11.1031 11.4049 11.4088C10.594 11.7144 9.91406 12.2918 9.48104 13.0425L5.05604 20.7075C4.62256 21.458 4.46245 22.3356 4.60295 23.1908C4.74344 24.0461 5.17586 24.8263 5.82667 25.3987L9.44729 28.5806C9.41542 29.0531 9.37604 29.5219 9.37604 30C9.37604 30.4837 9.39479 30.9619 9.42854 31.4363L5.82854 34.6013C5.17713 35.1732 4.74399 35.9532 4.60281 36.8085C4.46163 37.6638 4.62112 38.5415 5.05417 39.2925L9.47917 46.9575C9.91204 47.7094 10.5925 48.2877 11.4043 48.5937C12.2161 48.8998 13.1089 48.9146 13.9304 48.6356L18.4942 47.0906C19.2804 47.6211 20.1023 48.0966 20.9542 48.5138L21.8973 53.235C22.0673 54.0854 22.5268 54.8506 23.1975 55.4004C23.8682 55.9501 24.7088 56.2503 25.576 56.25H33.751V52.5H25.576L24.2448 45.8438C22.4032 45.1596 20.6937 44.1625 19.1917 42.8963L12.7285 45.0825L8.30354 37.4175L13.4129 32.9269C13.0634 30.9879 13.0589 29.0024 13.3998 27.0619L8.30354 22.5825L12.7285 14.9175L19.1542 17.0925C20.6669 15.8245 22.3897 14.8308 24.2448 14.1562L25.576 7.5H34.426L35.7573 14.1562C37.5988 14.8405 39.3083 15.8376 40.8104 17.1037L47.2735 14.9175L51.6985 22.5825L46.4523 27.18L48.9235 30L54.1735 25.3987C54.825 24.8268 55.2581 24.0468 55.3993 23.1915C55.5405 22.3362 55.381 21.4585 54.9479 20.7075Z" fill="#00B8C4"/>
<path d="M43.125 49.0875L38.2687 44.2312L35.625 46.875L43.125 54.375L56.25 41.25L53.6063 38.6062L43.125 49.0875Z" fill="#00B8C4"/>
</svg>
