<svg width="64" height="64" viewBox="0 0 64 64" fill="none" xmlns="http://www.w3.org/2000/svg">
<path fill-rule="evenodd" clip-rule="evenodd" d="M18 52C18 49.7909 19.7909 48 22 48C24.2091 48 26 49.7909 26 52C26 54.2091 24.2091 56 22 56C19.7909 56 18 54.2091 18 52Z" fill="#00B8C4"/>
<path fill-rule="evenodd" clip-rule="evenodd" d="M46 52C46 49.7909 47.7909 48 50 48C52.2091 48 54 49.7909 54 52C54 54.2091 52.2091 56 50 56C47.7909 56 46 54.2091 46 52Z" fill="#00B8C4"/>
<path fill-rule="evenodd" clip-rule="evenodd" d="M4 10C4 8.89543 4.89543 8 6 8H14C14.9705 8 15.8009 8.69671 15.9696 9.65243L21.678 42H52C53.1046 42 54 42.8954 54 44C54 45.1046 53.1046 46 52 46H20C19.0295 46 18.1991 45.3033 18.0304 44.3476L12.322 12H6C4.89543 12 4 11.1046 4 10Z" fill="#00B8C4"/>
<path fill-rule="evenodd" clip-rule="evenodd" d="M54.78 14C55.2236 13.9999 55.6617 14.0982 56.0627 14.2877C56.4642 14.4775 56.8186 14.7541 57.1002 15.0974C57.3818 15.4407 57.5837 15.8423 57.6913 16.2731C57.7989 16.7039 57.8095 17.1531 57.7224 17.5885C57.7224 17.5886 57.7224 17.5887 57.7224 17.5888L54.1224 35.5888C53.9862 36.2691 53.6184 36.8812 53.0817 37.3208C52.545 37.7605 51.8724 38.0005 51.1786 38L51.18 36V38H51.1786H20C18.8954 38 18 37.1046 18 36C18 34.8954 18.8954 34 20 34H50.3609L50.2001 34.8038L50.2001 34.804L51.1807 35.0001L51.1808 35.0002L52.1613 35.1963L51.1807 35L51.18 34.9999L50.2001 34.8038C50.2455 34.577 50.3681 34.3729 50.547 34.2264C50.7256 34.0801 50.9492 34.0002 51.18 34H50.3609L53.5609 18H54.78C54.6325 17.9999 54.4868 17.9671 54.3533 17.9041C54.2195 17.8408 54.1014 17.7486 54.0075 17.6342C53.9137 17.5198 53.8464 17.3859 53.8105 17.2423C53.7747 17.099 53.7711 16.9495 53.8 16.8046L53.5609 18H16C14.8954 18 14 17.1046 14 16C14 14.8954 14.8954 14 16 14H54.7795C54.7792 14 54.7789 14 54.7786 14L54.78 16V14Z" fill="#00B8C4"/>
</svg>
