<svg width="40" height="40" viewBox="0 0 40 40" fill="none" xmlns="http://www.w3.org/2000/svg">
<path fill-rule="evenodd" clip-rule="evenodd" d="M11.25 6.25C10.587 6.25 9.95107 6.51339 9.48223 6.98223C9.01339 7.45107 8.75 8.08696 8.75 8.75V33.75C8.75 34.413 9.01339 35.0489 9.48223 35.5178C9.95107 35.9866 10.587 36.25 11.25 36.25H28.75C29.413 36.25 30.0489 35.9866 30.5178 35.5178C30.9866 35.0489 31.25 34.413 31.25 33.75V8.75C31.25 8.08696 30.9866 7.45107 30.5178 6.98223C30.0489 6.51339 29.413 6.25 28.75 6.25H26.25V3.75H28.75C30.0761 3.75 31.3479 4.27678 32.2855 5.21447C33.2232 6.15215 33.75 7.42392 33.75 8.75V33.75C33.75 35.0761 33.2232 36.3479 32.2855 37.2855C31.3479 38.2232 30.0761 38.75 28.75 38.75H11.25C9.92392 38.75 8.65215 38.2232 7.71447 37.2855C6.77678 36.3479 6.25 35.0761 6.25 33.75V8.75C6.25 7.42392 6.77678 6.15215 7.71447 5.21447C8.65215 4.27678 9.92392 3.75 11.25 3.75H13.75V6.25H11.25Z" fill="#A1A1AA"/>
<path fill-rule="evenodd" clip-rule="evenodd" d="M15.7914 3.75C15.3543 3.75 15 4.10432 15 4.54141V5.45859C15 5.89568 15.3543 6.25 15.7914 6.25H24.2086C24.6457 6.25 25 5.89568 25 5.45859V4.54141C25 4.10432 24.6457 3.75 24.2086 3.75H15.7914ZM12.5 4.54141C12.5 2.72361 13.9736 1.25 15.7914 1.25H24.2086C26.0264 1.25 27.5 2.72361 27.5 4.54141V5.45859C27.5 7.27639 26.0264 8.75 24.2086 8.75H15.7914C13.9736 8.75 12.5 7.27639 12.5 5.45859V4.54141Z" fill="#A1A1AA"/>
</svg>
