<svg width="40" height="40" viewBox="0 0 40 40" fill="none" xmlns="http://www.w3.org/2000/svg">
<path fill-rule="evenodd" clip-rule="evenodd" d="M13.4407 10.4269C13.8953 10.9464 13.8427 11.7361 13.3231 12.1907L4.39824 20L13.3231 27.8093C13.8427 28.2639 13.8953 29.0536 13.4407 29.5731C12.9861 30.0927 12.1964 30.1453 11.6769 29.6907L1.67687 20.9407C1.4056 20.7034 1.25 20.3605 1.25 20C1.25 19.6396 1.4056 19.2967 1.67687 19.0593L11.6769 10.3093C12.1964 9.85469 12.9861 9.90734 13.4407 10.4269Z" fill="#A1A1AA"/>
<path fill-rule="evenodd" clip-rule="evenodd" d="M26.5593 10.4269C27.0139 9.90734 27.8036 9.85469 28.3231 10.3093L38.3231 19.0593C38.5944 19.2967 38.75 19.6396 38.75 20C38.75 20.3605 38.5944 20.7034 38.3231 20.9407L28.3231 29.6907C27.8036 30.1453 27.0139 30.0927 26.5593 29.5731C26.1047 29.0536 26.1573 28.2639 26.6769 27.8093L35.6018 20L26.6769 12.1907C26.1573 11.7361 26.1047 10.9464 26.5593 10.4269Z" fill="#A1A1AA"/>
<path fill-rule="evenodd" clip-rule="evenodd" d="M24.109 6.3028C24.7703 6.50117 25.1455 7.19803 24.9471 7.85927L17.4471 32.8593C17.2488 33.5205 16.5519 33.8957 15.8907 33.6974C15.2294 33.499 14.8542 32.8021 15.0526 32.1409L22.5526 7.1409C22.7509 6.47966 23.4478 6.10443 24.109 6.3028Z" fill="#A1A1AA"/>
</svg>
