<svg width="40" height="40" viewBox="0 0 40 40" fill="none" xmlns="http://www.w3.org/2000/svg">
<path fill-rule="evenodd" clip-rule="evenodd" d="M9.06315 8.75928C12.8098 5.43851 17.6551 3.75 22.2979 3.75C26.2752 3.75 30.171 4.99228 33.1081 7.57729L33.109 7.5781L33.1099 7.57892C37.2976 11.2792 37.298 17.4067 33.1112 21.1075C33.1108 21.1079 33.1103 21.1082 33.1099 21.1086L30.7451 23.2081C30.745 23.2081 30.745 23.2082 30.7449 23.2082C30.4159 23.5005 30.3271 23.7817 30.3271 23.9844C30.3271 24.1871 30.416 24.4684 30.7451 24.7607L30.747 24.7624L30.7489 24.7641C30.9608 24.9538 31.0682 25.0204 31.1684 25.0654C31.2855 25.1178 31.4714 25.175 31.8844 25.2433L31.8865 25.2436L31.8886 25.244C31.9237 25.2499 31.9614 25.256 32.0015 25.2626C32.582 25.3572 33.663 25.5334 34.451 26.2617L34.4533 26.2638L34.4555 26.266C35.201 26.9619 35.5867 27.9801 35.6182 28.9558C35.6502 29.9478 35.3185 31.0514 34.4236 31.8419C31.1245 34.7745 26.5464 36.25 21.9697 36.25H21.8324L21.8279 36.25C17.2468 36.2169 12.5662 34.7057 9.0638 31.6085C1.97765 25.3455 1.97743 15.0225 9.06315 8.75928ZM22.2979 6.25C18.2378 6.25 13.9896 7.73316 10.7208 10.6307L10.7201 10.6313L10.7194 10.6319C4.7589 15.9 4.7589 24.4672 10.7194 29.7353L10.7197 29.7355C13.7005 32.3716 17.7679 33.7196 21.8414 33.75H21.9697C26.0484 33.75 30.0009 32.4291 32.7641 29.9721L32.766 29.9704L32.7679 29.9688C32.9964 29.7672 33.1326 29.4421 33.1195 29.0364C33.1059 28.6154 32.9344 28.2676 32.7518 28.0956C32.5628 27.9226 32.2248 27.8361 31.4752 27.7096C30.9905 27.6294 30.5558 27.5304 30.146 27.3467C29.7197 27.1557 29.3939 26.9065 29.0829 26.628C28.2961 25.9284 27.8271 24.9956 27.8271 23.9844C27.8271 22.9723 28.2969 22.0387 29.085 21.3388L31.4534 19.2361L31.4545 19.2352C34.5161 16.5299 34.5165 12.1588 31.4555 9.45317C29.0489 7.33557 25.7732 6.25 22.2979 6.25Z" fill="#A1A1AA"/>
<path d="M11.25 18.75C12.6307 18.75 13.75 17.6307 13.75 16.25C13.75 14.8693 12.6307 13.75 11.25 13.75C9.86929 13.75 8.75 14.8693 8.75 16.25C8.75 17.6307 9.86929 18.75 11.25 18.75Z" fill="#A1A1AA"/>
<path d="M11.875 26.7969C13.2557 26.7969 14.375 25.6776 14.375 24.2969C14.375 22.9162 13.2557 21.7969 11.875 21.7969C10.4943 21.7969 9.375 22.9162 9.375 24.2969C9.375 25.6776 10.4943 26.7969 11.875 26.7969Z" fill="#A1A1AA"/>
<path d="M17.5 13.75C18.8807 13.75 20 12.6307 20 11.25C20 9.86929 18.8807 8.75 17.5 8.75C16.1193 8.75 15 9.86929 15 11.25C15 12.6307 16.1193 13.75 17.5 13.75Z" fill="#A1A1AA"/>
<path d="M20 32.4219C22.0711 32.4219 23.75 30.7429 23.75 28.6719C23.75 26.6008 22.0711 24.9219 20 24.9219C17.9289 24.9219 16.25 26.6008 16.25 28.6719C16.25 30.7429 17.9289 32.4219 20 32.4219Z" fill="#A1A1AA"/>
<path d="M25.625 13.75C27.0057 13.75 28.125 12.6307 28.125 11.25C28.125 9.86929 27.0057 8.75 25.625 8.75C24.2443 8.75 23.125 9.86929 23.125 11.25C23.125 12.6307 24.2443 13.75 25.625 13.75Z" fill="#A1A1AA"/>
</svg>
