<svg width="20" height="20" viewBox="0 0 20 20" fill="none" xmlns="http://www.w3.org/2000/svg">
<path d="M6.66665 15.0003H13.3333V13.3337H6.66665V15.0003ZM6.66665 11.667H13.3333V10.0003H6.66665V11.667ZM4.99998 18.3337C4.54165 18.3337 4.14929 18.1705 3.8229 17.8441C3.49651 17.5177 3.33331 17.1253 3.33331 16.667V3.33366C3.33331 2.87533 3.49651 2.48296 3.8229 2.15658C4.14929 1.83019 4.54165 1.66699 4.99998 1.66699H11.6666L16.6666 6.66699V16.667C16.6666 17.1253 16.5035 17.5177 16.1771 17.8441C15.8507 18.1705 15.4583 18.3337 15 18.3337H4.99998ZM10.8333 7.50033V3.33366H4.99998V16.667H15V7.50033H10.8333Z" fill="white"/>
</svg>
