<svg width="40" height="40" viewBox="0 0 40 40" fill="none" xmlns="http://www.w3.org/2000/svg">
<path d="M33.75 2.5H6.25C5.25544 2.5 4.30161 2.89509 3.59835 3.59835C2.89509 4.30161 2.5 5.25544 2.5 6.25L2.5 33.75C2.5 34.7446 2.89509 35.6984 3.59835 36.4016C4.30161 37.1049 5.25544 37.5 6.25 37.5H16.9727V25.6008H12.0508V20H16.9727V15.7312C16.9727 10.8758 19.8633 8.19375 24.2906 8.19375C26.4109 8.19375 28.6281 8.57188 28.6281 8.57188V13.3375H26.1852C23.7781 13.3375 23.0273 14.8312 23.0273 16.3633V20H28.4008L27.5414 25.6008H23.0273V37.5H33.75C34.7446 37.5 35.6984 37.1049 36.4016 36.4016C37.1049 35.6984 37.5 34.7446 37.5 33.75V6.25C37.5 5.25544 37.1049 4.30161 36.4016 3.59835C35.6984 2.89509 34.7446 2.5 33.75 2.5Z" fill="white"/>
</svg>
