<svg width="64" height="64" viewBox="0 0 64 64" fill="none" xmlns="http://www.w3.org/2000/svg">
<path fill-rule="evenodd" clip-rule="evenodd" d="M9 12C8.20435 12 7.44129 12.3161 6.87868 12.8787C6.31607 13.4413 6 14.2044 6 15V49C6 49.7957 6.31607 50.5587 6.87868 51.1213C7.44129 51.6839 8.20435 52 9 52H55C55.7957 52 56.5587 51.6839 57.1213 51.1213C57.6839 50.5587 58 49.7957 58 49V19C58 18.2044 57.6839 17.4413 57.1213 16.8787C56.5587 16.3161 55.7957 16 55 16H27.5138C26.1317 16 24.7805 15.5908 23.6306 14.8241C23.6306 14.8241 23.6305 14.824 23.6304 14.824L20.1504 12.504C19.6576 12.1754 19.0786 12 18.4862 12C18.4862 12 18.4863 12 18.4862 12H9ZM4.05025 10.0503C5.36301 8.7375 7.14348 8 9 8H18.4862C19.8683 8.00004 21.2195 8.40919 22.3694 9.1759C22.3694 9.17593 22.3695 9.17597 22.3696 9.176L25.8496 11.496C26.3424 11.8246 26.9214 12 27.5138 12C27.5137 12 27.5138 12 27.5138 12H55C56.8565 12 58.637 12.7375 59.9497 14.0503C61.2625 15.363 62 17.1435 62 19V49C62 50.8565 61.2625 52.637 59.9497 53.9497C58.637 55.2625 56.8565 56 55 56H9C7.14348 56 5.36301 55.2625 4.05025 53.9497C2.7375 52.637 2 50.8565 2 49V15C2 13.1435 2.7375 11.363 4.05025 10.0503Z" fill="#00B8C4"/>
<path fill-rule="evenodd" clip-rule="evenodd" d="M2 24C2 22.8954 2.89543 22 4 22H60C61.1046 22 62 22.8954 62 24C62 25.1046 61.1046 26 60 26H4C2.89543 26 2 25.1046 2 24Z" fill="#00B8C4"/>
</svg>
