<svg width="64" height="64" viewBox="0 0 64 64" fill="none" xmlns="http://www.w3.org/2000/svg">
<path fill-rule="evenodd" clip-rule="evenodd" d="M5.99993 22.0807C6.0779 14.4757 12.1195 8 19.8848 8C24.6512 8 28.1572 10.3593 30.3946 12.5807C31.0175 13.1992 31.5522 13.8162 31.9998 14.3851C32.4475 13.8162 32.9821 13.1992 33.6051 12.5807C35.8424 10.3593 39.3485 8 44.1148 8C51.8801 8 57.9217 14.4757 57.9997 22.0807L57.9997 22.0813C58.1476 36.914 46.2294 47.1755 34.2498 55.3073C33.5863 55.7588 32.8023 56.0002 31.9998 56.0002C31.1973 56.0002 30.4133 55.7588 29.7498 55.3073C17.769 47.1755 5.85069 36.9139 5.99992 22.0811L5.99993 22.0807ZM33.7862 18.8993C33.4465 19.5741 32.7555 20 31.9998 20C31.2441 20 30.5532 19.5741 30.2135 18.8994C30.2131 18.8986 30.2122 18.897 30.211 18.8947C30.2086 18.8899 30.2045 18.8822 30.1989 18.8715C30.1959 18.8658 30.1925 18.8593 30.1886 18.852C30.1661 18.8099 30.1287 18.7412 30.0764 18.6499C29.9716 18.4669 29.808 18.1943 29.5858 17.8622C29.139 17.1945 28.4677 16.3043 27.5763 15.4193C25.7849 13.6407 23.2335 12 19.8848 12C14.4602 12 10.0569 16.5591 9.99972 22.1214M33.7862 18.8993C33.7866 18.8985 33.7874 18.8969 33.7886 18.8947C33.7924 18.8874 33.7998 18.873 33.8111 18.852C33.8336 18.8099 33.871 18.7412 33.9233 18.6499C34.028 18.4669 34.1916 18.1943 34.4139 17.8622C34.8606 17.1945 35.5319 16.3043 36.4233 15.4193C38.2147 13.6407 40.7662 12 44.1148 12C49.5394 12 53.9426 16.559 53.9999 22.1212C54.1245 34.6203 44.0864 43.796 32.0016 51.999L31.9998 52.0002L31.998 51.9989C19.9121 43.796 9.87417 34.6205 9.99972 22.1218" fill="#00B8C4"/>
</svg>
