<svg width="40" height="40" viewBox="0 0 40 40" fill="none" xmlns="http://www.w3.org/2000/svg">
<path d="M8.3335 36.6666C7.41683 36.6666 6.63211 36.3402 5.97933 35.6874C5.32655 35.0346 5.00016 34.2499 5.00016 33.3333V14.5416C4.50016 14.236 4.09738 13.8402 3.79183 13.3541C3.48627 12.868 3.3335 12.3055 3.3335 11.6666V6.66659C3.3335 5.74992 3.65988 4.9652 4.31266 4.31242C4.96544 3.65964 5.75016 3.33325 6.66683 3.33325H33.3335C34.2502 3.33325 35.0349 3.65964 35.6877 4.31242C36.3404 4.9652 36.6668 5.74992 36.6668 6.66659V11.6666C36.6668 12.3055 36.514 12.868 36.2085 13.3541C35.9029 13.8402 35.5002 14.236 35.0002 14.5416V33.3333C35.0002 34.2499 34.6738 35.0346 34.021 35.6874C33.3682 36.3402 32.5835 36.6666 31.6668 36.6666H8.3335ZM8.3335 14.9999V33.3333H31.6668V14.9999H8.3335ZM6.66683 11.6666H33.3335V6.66659H6.66683V11.6666ZM15.0002 23.3333H25.0002V19.9999H15.0002V23.3333Z" fill="#A1A1AA"/>
</svg>
