<svg width="60" height="60" viewBox="0 0 60 60" fill="none" xmlns="http://www.w3.org/2000/svg">
<g clip-path="url(#clip0_1108_3540)">
<path d="M17.5 47.5C14.75 47.5 12.5 49.75 12.5 52.5H47.5C47.5 49.75 45.25 47.5 42.5 47.5H32.5V42.5H40C42.75 42.5 45 40.25 45 37.5H25C20.85 37.5 17.5 34.15 17.5 30C17.5 27.275 18.975 24.9 21.175 23.575C22.2 25.05 23.825 26.075 25.75 26.225C27.5 26.375 29.15 25.75 30.375 24.675L31.85 28.7L34.2 27.85L35.05 30.2L39.75 28.5L38.9 26.15L41.25 25.3L34.4 6.5L32.05 7.35L31.2 5L26.5 6.7L27.35 9.05L25 9.925L26.4 13.8C23.475 13.7 20.925 15.675 20.2 18.45C15.675 20.35 12.5 24.8 12.5 30C12.5 36.9 18.1 42.5 25 42.5V47.5H17.5ZM32.15 11.3L36.425 23.05L34.075 23.9L29.8 12.15L32.15 11.3ZM26.25 17.5C27.625 17.5 28.75 18.625 28.75 20C28.75 21.375 27.625 22.5 26.25 22.5C24.875 22.5 23.75 21.375 23.75 20C23.75 18.625 24.875 17.5 26.25 17.5Z" fill="#00B8C4"/>
</g>
<defs>
<clipPath id="clip0_1108_3540">
<rect width="60" height="60" fill="white"/>
</clipPath>
</defs>
</svg>
