<svg width="64" height="64" viewBox="0 0 64 64" fill="none" xmlns="http://www.w3.org/2000/svg">
<path fill-rule="evenodd" clip-rule="evenodd" d="M2 14C2 11.7909 3.79086 10 6 10H10C12.2091 10 14 11.7909 14 14V56C14 58.2091 12.2091 60 10 60H6C3.79086 60 2 58.2091 2 56V14ZM10 14H6V56H10V14Z" fill="#00B8C4"/>
<path fill-rule="evenodd" clip-rule="evenodd" d="M12 28C12 26.8954 12.8954 26 14 26H30C31.1046 26 32 26.8954 32 28C32 29.1046 31.1046 30 30 30H14C12.8954 30 12 29.1046 12 28Z" fill="#00B8C4"/>
<path fill-rule="evenodd" clip-rule="evenodd" d="M12 50C12 48.8954 12.8954 48 14 48H30C31.1046 48 32 48.8954 32 50C32 51.1046 31.1046 52 30 52H14C12.8954 52 12 51.1046 12 50Z" fill="#00B8C4"/>
<path fill-rule="evenodd" clip-rule="evenodd" d="M12 22C12 19.7909 13.7909 18 16 18H28C30.2091 18 32 19.7909 32 22V56C32 58.2091 30.2091 60 28 60H16C13.7909 60 12 58.2091 12 56V22ZM28 22H16V56H28V22Z" fill="#00B8C4"/>
<path fill-rule="evenodd" clip-rule="evenodd" d="M30 8C30 5.79086 31.7909 4 34 4H42C44.2091 4 46 5.79086 46 8V56C46 58.2091 44.2091 60 42 60H34C31.7909 60 30 58.2091 30 56V8ZM42 8H34V56H42V8Z" fill="#00B8C4"/>
<path fill-rule="evenodd" clip-rule="evenodd" d="M52.5982 10.0248C55.1582 9.7555 57.334 11.6905 57.6122 14.1503L57.6133 14.1595L61.972 54.352C62.2397 56.8212 60.514 59.1745 57.9517 59.4441L52.9017 59.9754L52.8999 59.9756C50.3472 60.2419 48.1625 58.3149 47.893 55.8486L43.5278 15.6482C43.2601 13.179 44.9859 10.8257 47.5481 10.5561L52.5982 10.0248C52.5982 10.0248 52.5982 10.0248 52.5982 10.0248ZM53.6372 14.5966C53.5866 14.1638 53.2361 13.9798 53.0167 14.0029L47.9667 14.5341C47.9667 14.5341 47.9667 14.5341 47.9667 14.5341C47.749 14.5571 47.4599 14.8036 47.5045 15.2167C47.5045 15.2168 47.5045 15.2169 47.5045 15.217L51.8693 55.4141C51.9147 55.8295 52.2564 56.0202 52.4837 55.9973C52.4841 55.9972 52.4845 55.9972 52.4849 55.9972L57.5331 55.4661C57.5331 55.4661 57.5331 55.4661 57.5331 55.4661C57.7509 55.4432 58.0401 55.1965 57.9953 54.7832C57.9953 54.7832 57.9953 54.7833 57.9953 54.7832L53.6376 14.5999C53.6375 14.5988 53.6373 14.5977 53.6372 14.5966Z" fill="#00B8C4"/>
</svg>
