<svg width="128" height="128" viewBox="0 0 128 128" fill="none" xmlns="http://www.w3.org/2000/svg">
<path d="M85.3332 95.9998C85.3332 90.3419 83.0856 84.9157 79.0848 80.9149C75.084 76.9141 69.6578 74.6665 63.9998 74.6665C58.3419 74.6665 52.9157 76.9141 48.9149 80.9149C44.9141 84.9157 42.6665 90.3419 42.6665 95.9998" stroke="white" stroke-width="8" stroke-linecap="round" stroke-linejoin="round"/>
<path d="M64 74.6665C72.8366 74.6665 80 67.5031 80 58.6665C80 49.8299 72.8366 42.6665 64 42.6665C55.1634 42.6665 48 49.8299 48 58.6665C48 67.5031 55.1634 74.6665 64 74.6665Z" stroke="white" stroke-width="8" stroke-linecap="round" stroke-linejoin="round"/>
<path d="M101.333 21.333H26.6667C20.7756 21.333 16 26.1086 16 31.9997V106.666C16 112.557 20.7756 117.333 26.6667 117.333H101.333C107.224 117.333 112 112.557 112 106.666V31.9997C112 26.1086 107.224 21.333 101.333 21.333Z" stroke="white" stroke-width="8" stroke-linecap="round" stroke-linejoin="round"/>
<path d="M42.6665 10.6665V21.3332M85.3332 10.6665V21.3332" stroke="white" stroke-width="8" stroke-linecap="round" stroke-linejoin="round"/>
</svg>
