<svg width="64" height="64" viewBox="0 0 64 64" fill="none" xmlns="http://www.w3.org/2000/svg">
<g clip-path="url(#clip0_535_35)">
<path d="M6 0C4.4087 0 2.88258 0.632141 1.75736 1.75736C0.632141 2.88258 0 4.4087 0 6L0 34C0 35.5913 0.632141 37.1174 1.75736 38.2426C2.88258 39.3679 4.4087 40 6 40H24V44H4C2.93913 44 1.92172 44.4214 1.17157 45.1716C0.421427 45.9217 0 46.9391 0 48L0 60C0 61.0609 0.421427 62.0783 1.17157 62.8284C1.92172 63.5786 2.93913 64 4 64H60C61.0609 64 62.0783 63.5786 62.8284 62.8284C63.5786 62.0783 64 61.0609 64 60V48C64 46.9391 63.5786 45.9217 62.8284 45.1716C62.0783 44.4214 61.0609 44 60 44H40V40H58C59.5913 40 61.1174 39.3679 62.2426 38.2426C63.3679 37.1174 64 35.5913 64 34V6C64 4.4087 63.3679 2.88258 62.2426 1.75736C61.1174 0.632141 59.5913 0 58 0L6 0ZM6 4H58C58.5304 4 59.0391 4.21071 59.4142 4.58579C59.7893 4.96086 60 5.46957 60 6V34C60 34.5304 59.7893 35.0391 59.4142 35.4142C59.0391 35.7893 58.5304 36 58 36H6C5.46957 36 4.96086 35.7893 4.58579 35.4142C4.21071 35.0391 4 34.5304 4 34V6C4 5.46957 4.21071 4.96086 4.58579 4.58579C4.96086 4.21071 5.46957 4 6 4ZM48 50C48 49.4696 48.2107 48.9609 48.5858 48.5858C48.9609 48.2107 49.4696 48 50 48C50.5304 48 51.0391 48.2107 51.4142 48.5858C51.7893 48.9609 52 49.4696 52 50C52 50.5304 51.7893 51.0391 51.4142 51.4142C51.0391 51.7893 50.5304 52 50 52C49.4696 52 48.9609 51.7893 48.5858 51.4142C48.2107 51.0391 48 50.5304 48 50ZM56 50C56 49.4696 56.2107 48.9609 56.5858 48.5858C56.9609 48.2107 57.4696 48 58 48C58.5304 48 59.0391 48.2107 59.4142 48.5858C59.7893 48.9609 60 49.4696 60 50C60 50.5304 59.7893 51.0391 59.4142 51.4142C59.0391 51.7893 58.5304 52 58 52C57.4696 52 56.9609 51.7893 56.5858 51.4142C56.2107 51.0391 56 50.5304 56 50ZM6 48H26C26.5304 48 27.0391 48.2107 27.4142 48.5858C27.7893 48.9609 28 49.4696 28 50C28 50.5304 27.7893 51.0391 27.4142 51.4142C27.0391 51.7893 26.5304 52 26 52H6C5.46957 52 4.96086 51.7893 4.58579 51.4142C4.21071 51.0391 4 50.5304 4 50C4 49.4696 4.21071 48.9609 4.58579 48.5858C4.96086 48.2107 5.46957 48 6 48ZM4 57C4 56.7348 4.10536 56.4804 4.29289 56.2929C4.48043 56.1054 4.73478 56 5 56H27C27.2652 56 27.5196 56.1054 27.7071 56.2929C27.8946 56.4804 28 56.7348 28 57C28 57.2652 27.8946 57.5196 27.7071 57.7071C27.5196 57.8946 27.2652 58 27 58H5C4.73478 58 4.48043 57.8946 4.29289 57.7071C4.10536 57.5196 4 57.2652 4 57Z" fill="#00B8C4"/>
</g>
<defs>
<clipPath id="clip0_535_35">
<rect width="64" height="64" fill="white"/>
</clipPath>
</defs>
</svg>
