<svg width="60" height="60" viewBox="0 0 60 60" fill="none" xmlns="http://www.w3.org/2000/svg">
<g clip-path="url(#clip0_1108_3551)">
<path d="M52.425 18.1751C53.4 17.2001 53.4 15.6251 52.425 14.6501L45.35 7.57512C44.375 6.60012 42.8 6.60012 41.825 7.57512L30.6 18.8001L20.875 9.07512C18.925 7.12512 15.75 7.12512 13.8 9.07512L9.05 13.8251C7.1 15.7751 7.1 18.9501 9.05 20.9001L18.775 30.6251L7.5 41.9001V52.5001H18.1L29.4 41.2001L39.125 50.9251C41.5 53.3001 44.7 52.4251 46.2 50.9251L50.95 46.1751C52.9 44.2251 52.9 41.0501 50.95 39.1001L41.225 29.3751L52.425 18.1751ZM12.6 17.3501L17.325 12.6001L20.5 15.7751L17.55 18.7501L21.075 22.2751L24.05 19.3001L27.05 22.3001L22.3 27.0501L12.6 17.3501ZM40.675 35.9501L37.7 38.9251L41.225 42.4501L44.2 39.4751L47.375 42.6501L42.625 47.4001L32.9 37.6751L37.65 32.9251L40.675 35.9501ZM16.025 47.5001H12.5V43.9751L36.525 19.9501L39.775 23.2001L40.05 23.4751L16.025 47.5001ZM40.05 16.4001L43.575 12.8751L47.1 16.4001L43.575 19.9251L40.05 16.4001Z" fill="#00B8C4"/>
</g>
<defs>
<clipPath id="clip0_1108_3551">
<rect width="60" height="60" fill="white"/>
</clipPath>
</defs>
</svg>
