<svg width="64" height="64" viewBox="0 0 64 64" fill="none" xmlns="http://www.w3.org/2000/svg">
<path d="M42.0003 32C39.4253 32 36.9503 30.85 35.0003 28.775C33.1128 26.75 31.9503 24.0375 31.7503 21.15C31.5378 18.075 32.4753 15.2375 34.3878 13.175C36.3003 11.125 39.0003 10 42.0003 10C44.9753 10 47.6753 11.1375 49.5878 13.1875C51.5253 15.2625 52.4628 18.0875 52.2378 21.1375C52.0253 24.025 50.8753 26.7375 48.9878 28.7625C47.0503 30.85 44.5753 32 42.0003 32ZM42.0003 14C40.1253 14 38.4628 14.675 37.3253 15.9C36.1503 17.1625 35.6128 18.875 35.7503 20.8625C35.8878 22.8375 36.6628 24.6875 37.9378 26.05C39.1128 27.3125 40.5628 28 42.0003 28C43.4503 28 44.8878 27.3 46.0628 26.05C47.3378 24.6875 48.1128 22.85 48.2503 20.8625C48.3878 18.9375 47.8253 17.175 46.6503 15.925C45.5128 14.675 43.8503 14 42.0003 14Z" fill="#00B8C4"/>
<path d="M58.4751 54H25.5251C24.4376 54 23.4376 53.5125 22.7751 52.6625C22.0876 51.775 21.8376 50.575 22.1126 49.4375C23.1626 45.2125 25.7751 41.7125 29.6501 39.3C33.0876 37.1625 37.4751 35.9875 41.9876 35.9875C46.5876 35.9875 50.8626 37.1125 54.3251 39.25C58.2126 41.6375 60.8251 45.1625 61.8751 49.4375C62.1501 50.575 61.9001 51.775 61.2126 52.6625C60.5626 53.5125 59.5626 54 58.4751 54ZM26.1126 50H57.9001C55.8376 42.625 48.1001 40 42.0001 40C35.9251 40 28.2001 42.625 26.1126 50Z" fill="#00B8C4"/>
<path d="M18.375 32.5C13.975 32.5 10.1125 28.4125 9.74999 23.3875C9.56249 20.8125 10.3625 18.4375 11.9875 16.6875C13.6 14.9625 15.8625 14.0125 18.3625 14.0125C20.85 14.0125 23.1125 14.975 24.725 16.7125C26.3625 18.475 27.1625 20.85 26.975 23.4C26.6375 28.4125 22.7625 32.5 18.375 32.5ZM18.375 18C17 18 15.775 18.5 14.925 19.4125C14.05 20.35 13.6375 21.625 13.75 23.1C13.9625 26.025 16.075 28.5 18.375 28.5C20.675 28.5 22.8 26.025 23 23.1C23.1 21.6625 22.675 20.3625 21.8125 19.425C20.9625 18.5 19.7375 18 18.375 18Z" fill="#00B8C4"/>
<path d="M19.2501 50H5.2126C4.2251 50 3.3126 49.5499 2.7001 48.7874C2.0751 47.9874 1.8501 46.8874 2.1001 45.8624C2.9626 42.3749 5.1126 39.5 8.3001 37.525C11.1126 35.7875 14.6876 34.825 18.3626 34.825C21.5126 34.825 24.2001 35.35 26.5751 36.4375C27.5751 36.9 28.0251 38.0875 27.5626 39.0875C27.1001 40.0875 25.9126 40.5375 24.9126 40.075C23.0751 39.2375 20.9376 38.825 18.3751 38.825C13.8126 38.825 8.0501 40.725 6.2251 46.0125H19.2501C20.3501 46.0125 21.2501 46.9125 21.2501 48.0125C21.2501 49.1125 20.3501 50 19.2501 50Z" fill="#00B8C4"/>
</svg>
