<svg width="76" height="76" viewBox="0 0 76 76" fill="none" xmlns="http://www.w3.org/2000/svg">
<path fill-rule="evenodd" clip-rule="evenodd" d="M59.9069 5.26156C63.0926 4.69617 66.1419 4.57177 68.6175 5.17567C69.1739 5.30927 69.681 5.59777 70.0802 6.00786C70.4748 6.41321 70.7478 6.9208 70.8686 7.47298C71.4499 10.0219 71.3293 13.0971 70.7621 16.3072C70.1878 19.558 69.1266 23.1076 67.6905 26.6706C64.8286 33.7709 60.3869 41.1468 55.0341 46.4717C53.4607 48.0546 51.7747 49.5204 49.9896 50.8578C50.1065 53.7721 49.774 56.7877 48.5863 59.5134L48.5851 59.516C46.6607 63.9178 43.1935 66.6817 39.854 68.398C36.5243 70.1093 33.1776 70.8575 31.1915 71.1767C30.6299 71.2674 30.0549 71.2278 29.511 71.0609C28.967 70.894 28.4688 70.6043 28.0547 70.2141C27.6406 69.8239 27.3218 69.3438 27.1229 68.8107C26.9239 68.2777 26.8502 67.706 26.9075 67.14C26.9081 67.1332 26.9089 67.1265 26.9096 67.1198L27.9558 57.5873C27.8499 57.5767 27.744 57.5655 27.6381 57.5538C26.4724 57.4335 25.3842 56.913 24.5589 56.0808C24.557 56.0789 24.5551 56.077 24.5533 56.0751L19.9133 51.4352C19.9114 51.4333 19.9095 51.4314 19.9076 51.4295C19.0757 50.6046 18.5552 49.5171 18.4345 48.352C18.4222 48.2406 18.4105 48.1293 18.3994 48.0179L8.85819 49.0653L8.84838 49.0664L8.84102 49.0671C8.27423 49.1252 7.70168 49.0519 7.16775 48.8531C6.6338 48.6542 6.15283 48.3351 5.76211 47.9205C5.37138 47.5058 5.08137 47.0068 4.91455 46.4619C4.74775 45.9172 4.70863 45.3413 4.80022 44.7789L4.80091 44.7747C5.12703 42.7949 5.87869 39.4533 7.5925 36.1255C9.31075 32.789 12.0736 29.3243 16.4721 27.3903L16.4784 27.3875C19.2053 26.198 22.2371 25.866 25.1694 25.994C26.507 24.2154 27.9718 22.5353 29.5526 20.9672C34.8929 15.632 42.3803 11.1922 49.5272 8.33231C53.1143 6.89689 56.6757 5.83501 59.9069 5.26156ZM51.292 12.7423C44.5706 15.432 37.6796 19.5611 32.9071 24.3302L32.9008 24.3365C31.1962 26.0271 29.6419 27.8627 28.2554 29.8227C27.7663 30.5141 26.946 30.8928 26.1025 30.8165C23.2115 30.5549 20.5372 30.8002 18.3811 31.7398C15.2866 33.1014 13.2128 35.5868 11.8154 38.3002C10.7389 40.3905 10.11 42.5313 9.74802 44.1891L20.3737 43.0226C21.0409 42.9493 21.7079 43.1618 22.2098 43.6075C22.7117 44.0532 23.0016 44.6904 23.0077 45.3616C23.0153 46.1887 23.065 47.0149 23.1565 47.8369C23.1575 47.8452 23.1583 47.8535 23.1592 47.8618C23.1666 47.9357 23.1996 48.0046 23.2524 48.0568L23.2622 48.0666L27.9217 52.726L27.9313 52.7358C27.9836 52.7886 28.0526 52.8216 28.1265 52.829C28.1354 52.8298 28.1443 52.8308 28.1532 52.8318C28.9701 52.9229 29.7912 52.9725 30.6131 52.9805C31.2841 52.9871 31.921 53.2771 32.3663 53.7789C32.8117 54.2808 33.0241 54.9476 32.9509 55.6145L31.7854 66.233C33.443 65.8759 35.5889 65.2494 37.6828 64.1733C40.3979 62.7778 42.8804 60.7054 44.2321 57.615C45.1741 55.4527 45.4191 52.7904 45.1709 49.9082C45.0984 49.0665 45.4785 48.2496 46.1691 47.763C48.1345 46.3781 49.975 44.824 51.6697 43.1186L51.6797 43.1086C56.4748 38.3401 60.6013 31.553 63.2849 24.8949C64.6219 21.5777 65.578 18.3483 66.0846 15.4808C66.4952 13.1565 66.5927 11.1693 66.4164 9.60447C64.9424 9.43825 63.0231 9.53273 60.7369 9.93848C57.8855 10.4445 54.6397 11.4027 51.292 12.7423ZM30.4367 66.487C30.4357 66.4872 30.4348 66.4873 30.4338 66.4875L30.436 66.4871C30.4362 66.4871 30.4364 66.4871 30.4367 66.487ZM48.8137 23.2711C48.0298 23.2711 47.2635 23.5036 46.6117 23.9391C45.96 24.3746 45.452 24.9937 45.152 25.7179C44.8521 26.4422 44.7736 27.2391 44.9266 28.0079C45.0796 28.7768 45.4572 29.4829 46.0116 30.0372L44.3319 31.7172L46.0135 30.0392C46.381 30.4074 46.8174 30.6995 47.2979 30.8988C47.7784 31.0982 48.2935 31.2008 48.8137 31.2008C49.3339 31.2008 49.849 31.0982 50.3295 30.8988C50.81 30.6995 51.2464 30.4074 51.6139 30.0392L51.6158 30.0372C52.1702 29.4829 52.5478 28.7768 52.7008 28.0079C52.8538 27.2391 52.7753 26.4422 52.4754 25.7179C52.1754 24.9937 51.6675 24.3746 51.0157 23.9391C50.3639 23.5036 49.5976 23.2711 48.8137 23.2711ZM42.6524 33.3956C41.4341 32.1772 40.6043 30.6249 40.268 28.935C39.9316 27.2447 40.1041 25.4927 40.7635 23.9004C41.4229 22.3082 42.5397 20.9472 43.9727 19.9897C45.4056 19.0322 47.0903 18.5211 48.8137 18.5211C50.5371 18.5211 52.2218 19.0322 53.6547 19.9897C55.0877 20.9472 56.2045 22.3082 56.8639 23.9004C57.5233 25.4927 57.6958 27.2447 57.3594 28.935C57.0232 30.6244 56.1939 32.1762 54.9762 33.3944C54.1675 34.2047 53.207 34.8476 52.1495 35.2863C51.0921 35.725 49.9585 35.9508 48.8137 35.9508C47.6689 35.9508 46.5353 35.725 45.4779 35.2863C44.421 34.8479 43.4608 34.2054 42.6524 33.3956Z" fill="#00B8C4"/>
<path fill-rule="evenodd" clip-rule="evenodd" d="M18.632 51.9606C18.7918 53.2625 17.866 54.4475 16.5641 54.6073C15.6109 54.7243 14.7241 55.156 14.044 55.834C13.8159 56.0641 13.4476 56.6952 13.084 57.8856C12.7433 59.0011 12.4882 60.3275 12.3026 61.6437C12.1869 62.4646 12.1013 63.2582 12.0384 63.9616C12.7423 63.8986 13.5366 63.813 14.3581 63.6971C15.6745 63.5113 17.0007 63.256 18.1153 62.9151C19.3081 62.5502 19.9365 62.1811 20.1627 61.9548L20.1668 61.9507C20.8461 61.2742 21.2777 60.3885 21.3919 59.4366C21.5481 58.1342 22.7304 57.2051 24.0328 57.3613C25.3351 57.5174 26.2643 58.6998 26.1081 60.0022C25.8669 62.0137 24.9551 63.8853 23.5199 65.3151C22.4377 66.3964 20.8705 67.0396 19.5047 67.4573C18.0598 67.8993 16.4639 68.1969 15.0218 68.4004C13.5688 68.6055 12.2109 68.7233 11.2201 68.79C10.723 68.8235 10.3142 68.8444 10.0271 68.857C9.88347 68.8633 9.77003 68.8675 9.69094 68.8702C9.65138 68.8715 9.62039 68.8725 9.59849 68.8732L9.5725 68.8739L9.56124 68.8742C9.56086 68.8742 9.56052 68.8742 9.5 66.5C7.12577 66.4394 7.12578 66.4391 7.12579 66.4387L7.12609 66.4275L7.12684 66.4015C7.12749 66.3796 7.12846 66.3486 7.12981 66.3091C7.13251 66.2301 7.13674 66.1167 7.14304 65.9731C7.15563 65.6862 7.17651 65.2776 7.20996 64.7808C7.27664 63.7904 7.39431 62.4331 7.59915 60.9805C7.80246 59.5387 8.09977 57.9432 8.54115 56.4981C8.9588 55.1307 9.60142 53.5628 10.6811 52.4794L10.6851 52.4754C12.1147 51.0479 13.9801 50.1388 15.9853 49.8927C17.2872 49.7329 18.4722 50.6587 18.632 51.9606ZM9.5 66.5L7.12577 66.4394C7.10918 67.0901 7.36036 67.7191 7.82061 68.1794C8.28086 68.6396 8.90983 68.8908 9.56052 68.8742L9.5 66.5Z" fill="#00B8C4"/>
</svg>
