<svg width="128" height="128" viewBox="0 0 128 128" fill="none" xmlns="http://www.w3.org/2000/svg">
<path d="M30.1334 53.4662L40.5334 57.8662C41.7778 55.3774 43.0667 52.9774 44.4 50.6662C45.7334 48.3551 47.2 46.044 48.8 43.7329L41.3334 42.2663L30.1334 53.4662ZM49.0667 64.5329L64.2667 79.5996C68 78.1774 72 75.9996 76.2667 73.0662C80.5334 70.1329 84.5334 66.7996 88.2667 63.0662C94.4889 56.844 99.3556 49.9329 102.867 42.3329C106.378 34.7329 107.911 27.7329 107.467 21.3329C101.067 20.8885 94.0445 22.4218 86.4 25.9329C78.7556 29.444 71.8222 34.3107 65.6 40.5329C61.8667 44.2663 58.5334 48.2663 55.6 52.5329C52.6667 56.7996 50.4889 60.7996 49.0667 64.5329ZM72.8 55.8662C70.7556 53.8218 69.7334 51.3107 69.7334 48.3329C69.7334 45.3551 70.7556 42.844 72.8 40.7996C74.8445 38.7551 77.3778 37.7329 80.4 37.7329C83.4222 37.7329 85.9556 38.7551 88 40.7996C90.0445 42.844 91.0667 45.3551 91.0667 48.3329C91.0667 51.3107 90.0445 53.8218 88 55.8662C85.9556 57.9107 83.4222 58.9329 80.4 58.9329C77.3778 58.9329 74.8445 57.9107 72.8 55.8662ZM75.3334 98.6662L86.5334 87.4662L85.0667 79.9996C82.7556 81.5996 80.4445 83.044 78.1334 84.3329C75.8222 85.6218 73.4222 86.8885 70.9334 88.1329L75.3334 98.6662ZM117.067 11.5996C118.756 22.3551 117.711 32.8218 113.933 42.9996C110.156 53.1774 103.644 62.8885 94.4 72.1329L97.0667 85.3329C97.4222 87.1107 97.3334 88.844 96.8 90.5329C96.2667 92.2218 95.3778 93.6885 94.1334 94.9329L71.7334 117.333L60.5334 91.0662L37.7334 68.2662L11.4667 57.0662L33.7334 34.6663C34.9778 33.4218 36.4667 32.5329 38.2 31.9996C39.9334 31.4663 41.6889 31.3774 43.4667 31.7329L56.6667 34.3996C65.9111 25.1551 75.6 18.6218 85.7334 14.7996C95.8667 10.9774 106.311 9.9107 117.067 11.5996ZM20.9334 85.1996C24.0445 82.0885 27.8445 80.5107 32.3334 80.4662C36.8222 80.4218 40.6222 81.9551 43.7334 85.0662C46.8445 88.1774 48.3778 91.9774 48.3334 96.4662C48.2889 100.955 46.7111 104.755 43.6 107.866C41.3778 110.088 37.6667 112 32.4667 113.6C27.2667 115.2 20.0889 116.622 10.9333 117.866C12.1778 108.711 13.6 101.533 15.2 96.3329C16.8 91.1329 18.7111 87.4218 20.9334 85.1996ZM28.5333 92.6662C27.6445 93.5551 26.7556 95.1774 25.8667 97.5329C24.9778 99.8885 24.3556 102.266 24 104.666C26.4 104.311 28.7778 103.711 31.1334 102.866C33.4889 102.022 35.1111 101.155 36 100.266C37.0667 99.1996 37.6445 97.9107 37.7334 96.3996C37.8222 94.8885 37.3334 93.5996 36.2667 92.5329C35.2 91.4662 33.9111 90.9551 32.4 90.9996C30.8889 91.044 29.6 91.5996 28.5333 92.6662Z" fill="white"/>
</svg>
