<svg width="96" height="96" viewBox="0 0 96 96" fill="none" xmlns="http://www.w3.org/2000/svg">
<path fill-rule="evenodd" clip-rule="evenodd" d="M75.6718 6.64605C79.6959 5.93187 83.5476 5.77473 86.6748 6.53755C87.3775 6.70631 88.0181 7.07073 88.5224 7.58874C89.0208 8.10076 89.3656 8.74193 89.5182 9.43941C90.2525 12.6591 90.1001 16.5436 89.3837 20.5984C88.6583 24.7047 87.3178 29.1884 85.5037 33.6891C81.8888 42.6578 76.2782 51.9748 69.5167 58.701C67.5293 60.7004 65.3996 62.552 63.1447 64.2413C63.2924 67.9226 62.8724 71.7317 61.3721 75.1747L61.3707 75.178C58.9398 80.7381 54.5601 84.2294 50.3419 86.3973C46.1359 88.5589 41.9085 89.504 39.3998 89.9072C38.6903 90.0219 37.964 89.9718 37.277 89.761C36.5899 89.5502 35.9605 89.1842 35.4375 88.6913C34.9144 88.1985 34.5117 87.592 34.2604 86.9187C34.0092 86.2453 33.9161 85.5233 33.9884 84.8083C33.9892 84.7997 33.9901 84.7912 33.991 84.7827L35.3126 72.7417C35.1787 72.7284 35.045 72.7142 34.9113 72.6994C33.4388 72.5475 32.0643 71.89 31.0218 70.8388C31.0194 70.8364 31.017 70.834 31.0146 70.8316L25.1537 64.9706C25.1512 64.9682 25.1488 64.9658 25.1464 64.9634C24.0955 63.9215 23.4381 62.5478 23.2857 61.076C23.2701 60.9354 23.2553 60.7947 23.2413 60.654L11.1893 61.9771L11.1769 61.9784L11.1676 61.9794C10.4516 62.0527 9.72841 61.9602 9.05398 61.709C8.37951 61.4579 7.77197 61.0547 7.27843 60.531C6.78488 60.0072 6.41854 59.3768 6.20783 58.6886C5.99713 58.0005 5.94771 57.273 6.06341 56.5627L6.06428 56.5574C6.47622 54.0566 7.42569 49.8356 9.5905 45.632C11.7609 41.4176 15.2509 37.041 20.8069 34.5981L20.8148 34.5946C24.2593 33.092 28.0889 32.6727 31.7929 32.8344C33.4825 30.5877 35.3327 28.4655 37.3295 26.4847C44.0752 19.7455 53.533 14.1374 62.5607 10.5249C67.0918 8.71173 71.5904 7.37041 75.6718 6.64605ZM64.7898 16.0954C56.2997 19.4929 47.5953 24.7087 41.5668 30.7327L41.5588 30.7407C39.4057 32.8762 37.4424 35.1949 35.6911 37.6706C35.0732 38.544 34.0371 39.0223 32.9716 38.9259C29.3198 38.5955 25.9417 38.9054 23.2183 40.0922C19.3094 41.8122 16.6898 44.9516 14.9247 48.3791C13.565 51.0194 12.7705 53.7236 12.3133 55.8176L25.7351 54.3442C26.5779 54.2516 27.4205 54.5201 28.0545 55.083C28.6885 55.646 29.0546 56.4509 29.0624 57.2987C29.072 58.3435 29.1347 59.3871 29.2503 60.4255C29.2515 60.4359 29.2526 60.4464 29.2537 60.4569C29.2631 60.5502 29.3047 60.6373 29.3714 60.7032L29.3838 60.7156L35.2695 66.6012L35.2817 66.6135C35.3476 66.6802 35.4348 66.7218 35.5282 66.7312C35.5394 66.7323 35.5507 66.7335 35.5619 66.7347C36.5938 66.8498 37.6309 66.9125 38.6692 66.9226C39.5167 66.9309 40.3212 67.2972 40.8838 67.9311C41.4464 68.565 41.7146 69.4073 41.6221 70.2498L40.15 83.6626C42.2438 83.2115 44.9544 82.4202 47.5992 81.0608C51.0289 79.2982 54.1647 76.6804 55.8722 72.7767C57.062 70.0454 57.3715 66.6825 57.058 63.0418C56.9664 61.9786 57.4465 60.9467 58.3189 60.332C60.8014 58.5827 63.1263 56.6197 65.267 54.4654L65.2796 54.4528C71.3366 48.4295 76.5489 39.8563 79.9388 31.4461C81.6277 27.256 82.8353 23.1767 83.4752 19.5546C83.9939 16.6185 84.117 14.1084 83.8943 12.1318C82.0325 11.9219 79.6082 12.0412 76.7203 12.5537C73.1185 13.193 69.0185 14.4033 64.7898 16.0954ZM38.4463 83.9835C38.4451 83.9837 38.4439 83.9838 38.4427 83.984L38.4454 83.9836C38.4457 83.9836 38.446 83.9835 38.4463 83.9835ZM61.6594 29.395C60.6692 29.395 59.7012 29.6886 58.8779 30.2387C58.0546 30.7889 57.413 31.5708 57.0341 32.4857C56.6552 33.4005 56.5562 34.4072 56.7494 35.3783C56.9427 36.3495 57.4196 37.2415 58.1198 37.9416L55.9982 40.0637L58.1223 37.9441C58.5865 38.4092 59.1378 38.7782 59.7447 39.03C60.3517 39.2818 61.0023 39.4114 61.6594 39.4114C62.3165 39.4114 62.9671 39.2818 63.5741 39.03C64.181 38.7782 64.7323 38.4092 65.1964 37.9441L65.1989 37.9416C65.8992 37.2415 66.3761 36.3495 66.5694 35.3783C66.7626 34.4072 66.6636 33.4005 66.2847 32.4857C65.9058 31.5708 65.2641 30.7889 64.4408 30.2387C63.6175 29.6886 62.6496 29.395 61.6594 29.395ZM53.8767 42.1837C52.3378 40.6447 51.2896 38.684 50.8648 36.5493C50.4399 34.4143 50.6577 32.2012 51.4907 30.1899C52.3237 28.1786 53.7344 26.4595 55.5444 25.25C57.3544 24.0405 59.4825 23.395 61.6594 23.395C63.8363 23.395 65.9644 24.0405 67.7744 25.25C69.5844 26.4595 70.9951 28.1786 71.8281 30.1899C72.661 32.2012 72.8789 34.4143 72.454 36.5493C72.0293 38.6833 70.9817 40.6434 69.4436 42.1822C68.4221 43.2058 67.2088 44.0179 65.8731 44.572C64.5374 45.1261 63.1055 45.4114 61.6594 45.4114C60.2133 45.4114 58.7814 45.1261 57.4457 44.572C56.1107 44.0182 54.8979 43.2066 53.8767 42.1837Z" fill="#00B8C4"/>
<path fill-rule="evenodd" clip-rule="evenodd" d="M23.5351 65.6345C23.737 67.279 22.5675 68.7758 20.923 68.9777C19.719 69.1254 18.5988 69.6708 17.7398 70.5272C17.4516 70.8179 16.9864 71.615 16.5271 73.1187C16.0968 74.5277 15.7746 76.2032 15.5401 77.8658C15.3939 78.9026 15.2858 79.9051 15.2064 80.7936C16.0956 80.7141 17.0989 80.6059 18.1365 80.4594C19.7993 80.2248 21.4746 79.9023 22.8825 79.4717C24.3891 79.0108 25.1829 78.5446 25.4687 78.2587L25.4738 78.2536C26.332 77.399 26.8771 76.2803 27.0213 75.0778C27.2186 73.4327 28.7121 72.2591 30.3572 72.4563C32.0023 72.6536 33.1759 74.1471 32.9787 75.7922C32.674 78.3331 31.5222 80.6972 29.7093 82.5033C28.3424 83.8692 26.3627 84.6816 24.6375 85.2092C22.8123 85.7675 20.7965 86.1435 18.9749 86.4006C17.1396 86.6596 15.4243 86.8083 14.1727 86.8926C13.5448 86.9349 13.0285 86.9613 12.6658 86.9772C12.4844 86.9852 12.3411 86.9905 12.2412 86.9939C12.1912 86.9956 12.1521 86.9969 12.1244 86.9977L12.0916 86.9986L12.0774 86.999C12.0769 86.999 12.0764 86.999 12 84C9.00098 83.9235 9.00099 83.9231 9.001 83.9226L9.00138 83.9084L9.00232 83.8756C9.00315 83.8479 9.00437 83.8088 9.00607 83.7589C9.00949 83.659 9.01484 83.5158 9.02279 83.3345C9.0387 82.972 9.06507 82.4559 9.10732 81.8283C9.19154 80.5773 9.34019 78.8628 9.59892 77.028C9.85573 75.2068 10.2313 73.1914 10.7888 71.366C11.3164 69.6387 12.1281 67.6583 13.492 66.2898L13.497 66.2847C15.3027 64.4815 17.6591 63.3333 20.192 63.0224C21.8365 62.8205 23.3333 63.99 23.5351 65.6345ZM12 84L9.00098 83.9235C8.98001 84.7454 9.2973 85.5399 9.87866 86.1213C10.46 86.7027 11.2545 87.02 12.0764 86.999L12 84Z" fill="#00B8C4"/>
</svg>
