<svg width="68" height="68" viewBox="0 0 68 68" fill="none" xmlns="http://www.w3.org/2000/svg">
<path d="M24.2545 24.6614L43.3368 43.7422M24.2545 24.6614L24.2494 24.6563L5.95165 42.9678C3.42143 45.4982 2 48.93 2 52.5083C2 56.0865 3.42143 59.5183 5.95165 62.0487C8.48226 64.5787 11.9143 66 15.4928 66C19.0714 66 22.5034 64.5787 25.034 62.0487L43.3368 43.7422M24.2545 24.6614L33.4717 4.9226C33.8155 4.18537 34.3318 3.54185 34.9771 3.04654C35.6224 2.55123 36.3775 2.21873 37.1786 2.0772C37.9796 1.93567 38.803 1.98929 39.579 2.2335C40.3549 2.47772 41.0605 2.90534 41.6361 3.48015L64.5197 26.367C65.0946 26.9425 65.5222 27.6481 65.7665 28.424C66.0107 29.1999 66.0643 30.0232 65.9228 30.8242C65.7813 31.6252 65.4487 32.3803 64.9534 33.0255C64.458 33.6707 63.8145 34.1871 63.0772 34.5308L43.3368 43.7422M16.8544 32.0609L35.9367 51.1417M46.8192 8.65272L40.7807 18.1931M58.5065 20.3391L48.9603 26.3721" stroke="#00B8C4" stroke-width="3" stroke-linecap="round" stroke-linejoin="round"/>
</svg>
