<svg width="76" height="76" viewBox="0 0 76 76" fill="none" xmlns="http://www.w3.org/2000/svg">
<g clip-path="url(#clip0_1091_2103)">
<path d="M30.8751 76C30.3555 76 29.8508 75.896 29.3758 75.6734C28.4704 75.2726 27.7727 74.5453 27.4165 73.6101L21.1227 57.2523L4.75003 50.9585C3.77034 50.5874 2.99847 49.8007 2.61253 48.821C1.88518 46.9062 2.83518 44.7538 4.75003 44.0265L21.1079 37.7327L27.4165 21.3749C27.7876 20.3952 28.5743 19.6233 29.554 19.2374C30.4743 18.8811 31.4837 18.9108 32.3891 19.3116C33.2946 19.7124 33.9923 20.4397 34.3485 21.3749L40.6423 37.7327L57.0001 44.0413C57.9798 44.4124 58.7517 45.1991 59.1376 46.1788C59.8798 48.0937 58.915 50.246 57.0001 50.9734L40.6423 57.2671L34.3337 73.6249C33.9626 74.6046 33.1759 75.3765 32.1962 75.7625C31.7805 75.9257 31.3204 76 30.8751 76ZM8.98051 47.4999L23.2602 52.9921C24.2399 53.3632 25.0118 54.1499 25.3977 55.1296L30.8899 69.4093L36.3821 55.1296C36.7532 54.1499 37.5399 53.378 38.5196 52.9921L52.7993 47.4999L38.5196 42.0077C37.5399 41.6366 36.768 40.8499 36.3821 39.8702L30.8899 25.5905L25.3977 39.8702C25.0266 40.8499 24.2399 41.6218 23.2602 42.0077L8.98051 47.4999ZM40.7907 38.178C40.8056 38.178 40.8056 38.178 40.7907 38.178V38.178Z" fill="#00B8C4"/>
<path d="M13.0625 26.125C12.0828 26.125 11.1922 25.5164 10.8508 24.5961L8.26798 17.8571L1.52891 15.2742C0.608595 14.9328 0 14.0422 0 13.0625C0 12.0828 0.608595 11.1922 1.52891 10.8508L8.26798 8.26798L10.8508 1.52891C11.1922 0.608595 12.0828 0 13.0625 0C14.0422 0 14.9328 0.608595 15.2742 1.52891L17.8571 8.26798L24.5961 10.8508C25.5164 11.207 26.125 12.0828 26.125 13.0625C26.125 14.0422 25.5164 14.9328 24.5961 15.2742L17.8571 17.8571L15.2742 24.5961C14.9328 25.5164 14.0422 26.125 13.0625 26.125ZM8.99533 13.0625L10.9547 13.8196C11.5781 14.0571 12.0828 14.5617 12.3203 15.1852L13.0774 17.1446L13.8344 15.1852C14.0719 14.5617 14.5766 14.0571 15.2 13.8196L17.1594 13.0625L15.2 12.3055C14.5766 12.068 14.0719 11.5633 13.8344 10.9399L13.0625 8.99533L12.3055 10.9547C12.068 11.5781 11.5633 12.0828 10.9399 12.3203L8.99533 13.0625Z" fill="#00B8C4"/>
<path d="M59.375 38C58.3953 38 57.5047 37.3915 57.1633 36.4711L53.586 27.1641L44.2789 23.5867C43.3586 23.2305 42.75 22.3547 42.75 21.375C42.75 20.3953 43.3586 19.5047 44.2789 19.1633L53.586 15.586L57.1633 6.27891C57.5196 5.35859 58.3953 4.75 59.375 4.75C60.3547 4.75 61.2453 5.35859 61.5867 6.27891L65.1641 15.586L74.4711 19.1633C75.3915 19.5196 76 20.3953 76 21.375C76 22.3547 75.3915 23.2453 74.4711 23.5867L65.1641 27.1641L61.5867 36.4711C61.2453 37.3915 60.3547 38 59.375 38ZM51.7453 21.375L56.2727 23.1117C56.8961 23.3492 57.4008 23.8539 57.6383 24.4774L59.375 29.0047L61.1117 24.4774C61.3492 23.8539 61.8539 23.3492 62.4774 23.1117L67.0047 21.375L62.4774 19.6383C61.8539 19.4008 61.3492 18.8961 61.1117 18.2727L59.375 13.7453L57.6383 18.2727C57.4008 18.8961 56.8961 19.4008 56.2727 19.6383L51.7453 21.375Z" fill="#00B8C4"/>
</g>
<defs>
<clipPath id="clip0_1091_2103">
<rect width="76" height="76" fill="white"/>
</clipPath>
</defs>
</svg>
