<svg width="96" height="96" viewBox="0 0 96 96" fill="none" xmlns="http://www.w3.org/2000/svg">
<g clip-path="url(#clip0_768_795)">
<path d="M38.9999 96C38.3437 96 37.7062 95.8687 37.1062 95.5875C35.9624 95.0812 35.0812 94.1625 34.6312 92.9812L26.6812 72.3187L5.99988 64.3687C4.76238 63.8999 3.78738 62.9062 3.29988 61.6687C2.38113 59.2499 3.58113 56.5312 5.99988 55.6124L26.6624 47.6624L34.6312 26.9999C35.0999 25.7624 36.0937 24.7874 37.3312 24.2999C38.4937 23.8499 39.7687 23.8874 40.9124 24.3936C42.0562 24.8999 42.9374 25.8186 43.3874 26.9999L51.3374 47.6624L72 55.6312C73.2375 56.0999 74.2125 57.0937 74.7 58.3312C75.6375 60.7499 74.4187 63.4687 72 64.3874L51.3374 72.3375L43.3687 93C42.8999 94.2375 41.9062 95.2125 40.6687 95.7C40.1437 95.9062 39.5624 96 38.9999 96ZM11.3436 59.9999L29.3812 66.9375C30.6187 67.4062 31.5937 68.3999 32.0812 69.6375L39.0187 87.675L45.9562 69.6375C46.4249 68.3999 47.4187 67.4249 48.6562 66.9375L66.6937 59.9999L48.6562 53.0624C47.4187 52.5937 46.4437 51.5999 45.9562 50.3624L39.0187 32.3249L32.0812 50.3624C31.6124 51.5999 30.6187 52.5749 29.3812 53.0624L11.3436 59.9999ZM51.5249 48.2249C51.5437 48.2249 51.5437 48.2249 51.5249 48.2249V48.2249Z" fill="#00B8C4"/>
<path d="M16.5 33C15.2625 33 14.1375 32.2313 13.7063 31.0688L10.4438 22.5563L1.93125 19.2938C0.768751 18.8625 0 17.7375 0 16.5C0 15.2625 0.768751 14.1375 1.93125 13.7063L10.4438 10.4438L13.7063 1.93125C14.1375 0.768751 15.2625 0 16.5 0C17.7375 0 18.8625 0.768751 19.2938 1.93125L22.5563 10.4438L31.0688 13.7063C32.2313 14.1563 33 15.2625 33 16.5C33 17.7375 32.2313 18.8625 31.0688 19.2938L22.5563 22.5563L19.2938 31.0688C18.8625 32.2313 17.7375 33 16.5 33ZM11.3625 16.5L13.8375 17.4563C14.625 17.7563 15.2625 18.3938 15.5625 19.1813L16.5188 21.6563L17.475 19.1813C17.775 18.3938 18.4125 17.7563 19.2 17.4563L21.675 16.5L19.2 15.5438C18.4125 15.2438 17.775 14.6063 17.475 13.8188L16.5 11.3625L15.5438 13.8375C15.2438 14.625 14.6063 15.2625 13.8188 15.5625L11.3625 16.5Z" fill="#00B8C4"/>
<path d="M75 48.0001C73.7625 48.0001 72.6375 47.2313 72.2063 46.0688L67.6875 34.3126L55.9313 29.7938C54.7687 29.3438 54 28.2375 54 27C54 25.7625 54.7687 24.6375 55.9313 24.2063L67.6875 19.6875L72.2063 7.93127C72.6563 6.76877 73.7625 6.00002 75 6.00002C76.2375 6.00002 77.3625 6.76877 77.7938 7.93127L82.3125 19.6875L94.0688 24.2063C95.2313 24.6563 96.0001 25.7625 96.0001 27C96.0001 28.2375 95.2313 29.3625 94.0688 29.7938L82.3125 34.3126L77.7938 46.0688C77.3625 47.2313 76.2375 48.0001 75 48.0001ZM65.3625 27L71.0813 29.1938C71.8688 29.4938 72.5063 30.1313 72.8063 30.9188L75 36.6376L77.1938 30.9188C77.4938 30.1313 78.1313 29.4938 78.9188 29.1938L84.6375 27L78.9188 24.8063C78.1313 24.5063 77.4938 23.8688 77.1938 23.0813L75 17.3625L72.8063 23.0813C72.5063 23.8688 71.8688 24.5063 71.0813 24.8063L65.3625 27Z" fill="#00B8C4"/>
</g>
<defs>
<clipPath id="clip0_768_795">
<rect width="96" height="96" fill="white"/>
</clipPath>
</defs>
</svg>
