<svg width="76" height="76" viewBox="0 0 76 76" fill="none" xmlns="http://www.w3.org/2000/svg">
<path d="M38.0002 69.6666C55.4892 69.6666 69.6668 55.4889 69.6668 37.9999C69.6668 20.5109 55.4892 6.33325 38.0002 6.33325C20.5111 6.33325 6.3335 20.5109 6.3335 37.9999C6.3335 55.4889 20.5111 69.6666 38.0002 69.6666Z" stroke="#00B8C4" stroke-width="5" stroke-linecap="round" stroke-linejoin="round"/>
<path d="M38 57C48.4934 57 57 48.4934 57 38C57 27.5066 48.4934 19 38 19C27.5066 19 19 27.5066 19 38C19 48.4934 27.5066 57 38 57Z" stroke="#00B8C4" stroke-width="5" stroke-linecap="round" stroke-linejoin="round"/>
<path d="M37.9998 44.3334C41.4976 44.3334 44.3332 41.4979 44.3332 38.0001C44.3332 34.5023 41.4976 31.6667 37.9998 31.6667C34.502 31.6667 31.6665 34.5023 31.6665 38.0001C31.6665 41.4979 34.502 44.3334 37.9998 44.3334Z" stroke="#00B8C4" stroke-width="5" stroke-linecap="round" stroke-linejoin="round"/>
</svg>
