<svg width="20" height="21" viewBox="0 0 20 21" fill="none" xmlns="http://www.w3.org/2000/svg">
<path d="M10.96 1.636C11.042 1.642 11.118 1.648 11.182 1.657C15.685 2.35 17.756 4.483 18.329 9.021C18.339 9.098 18.341 9.192 18.342 9.291C18.348 9.646 18.36 10.384 19.152 10.399H19.176C19.425 10.399 19.622 10.324 19.764 10.176C20.01 9.919 19.994 9.536 19.979 9.228C19.976 9.152 19.973 9.081 19.973 9.018C20.031 4.378 16.013 0.169 11.377 0.013C11.357 0.013 11.339 0.013 11.321 0.016C11.3028 0.0183017 11.2844 0.0193042 11.266 0.019C11.219 0.019 11.163 0.015 11.102 0.011C11.03 0.006 10.947 0 10.862 0C10.124 0 9.98401 0.525 9.96601 0.838C9.92501 1.561 10.624 1.612 10.96 1.636ZM18.112 14.886C18.0154 14.8126 17.9197 14.7379 17.825 14.662C17.333 14.266 16.81 13.902 16.305 13.549L15.99 13.329C15.342 12.874 14.76 12.653 14.21 12.653C13.468 12.653 12.822 13.063 12.288 13.87C12.052 14.228 11.765 14.402 11.412 14.402C11.1668 14.3934 10.9262 14.3331 10.706 14.225C8.61601 13.277 7.12201 11.823 6.26801 9.904C5.85501 8.976 5.98901 8.37 6.71501 7.876C7.12801 7.596 7.89501 7.075 7.84201 6.076C7.78001 4.943 5.27901 1.532 4.22501 1.145C3.77443 0.980641 3.28052 0.979226 2.82901 1.141C1.61801 1.548 0.750009 2.264 0.315009 3.209C-0.104991 4.123 -0.0849908 5.196 0.369009 6.312C1.68401 9.539 3.53201 12.353 5.86301 14.675C8.14401 16.948 10.948 18.809 14.196 20.208C14.489 20.334 14.796 20.403 15.021 20.453C15.097 20.47 15.163 20.485 15.211 20.498C15.2374 20.5051 15.2647 20.5088 15.292 20.509H15.318C16.846 20.509 18.681 19.113 19.244 17.522C19.738 16.128 18.836 15.439 18.112 14.886ZM11.636 5.323C11.375 5.329 10.83 5.343 10.639 5.897C10.549 6.157 10.56 6.381 10.671 6.566C10.833 6.836 11.144 6.92 11.426 6.966C12.451 7.13 12.978 7.696 13.083 8.749C13.132 9.239 13.463 9.582 13.886 9.582C13.9181 9.58195 13.9502 9.57995 13.982 9.576C14.492 9.516 14.739 9.141 14.717 8.462C14.725 7.754 14.355 6.95 13.724 6.31C13.092 5.668 12.33 5.306 11.636 5.323Z" fill="white"/>
</svg>
