<svg width="64" height="64" viewBox="0 0 64 64" fill="none" xmlns="http://www.w3.org/2000/svg">
<path fill-rule="evenodd" clip-rule="evenodd" d="M6.00005 22.0807C6.07802 14.4757 12.1197 8 19.8849 8C24.6513 8 28.1573 10.3593 30.3947 12.5807C31.0177 13.1992 31.5523 13.8162 31.9999 14.3851C32.4476 13.8162 32.9822 13.1992 33.6052 12.5807C35.8426 10.3593 39.3486 8 44.1149 8C51.8802 8 57.9219 14.4757 57.9998 22.0807L57.9998 22.0813C58.1477 36.914 46.2296 47.1755 34.2499 55.3073C33.5864 55.7588 32.8025 56.0002 31.9999 56.0002C31.1974 56.0002 30.4135 55.7588 29.7499 55.3073C17.7691 47.1755 5.85081 36.9139 6.00004 22.0811L6.00005 22.0807ZM33.7863 18.8993C33.4467 19.5741 32.7557 20 31.9999 20C31.2443 20 30.5533 19.5741 30.2136 18.8994C30.2132 18.8986 30.2124 18.897 30.2111 18.8947C30.2087 18.8899 30.2047 18.8822 30.199 18.8715C30.196 18.8658 30.1926 18.8593 30.1887 18.852C30.1662 18.8099 30.1288 18.7412 30.0765 18.6499C29.9717 18.4669 29.8081 18.1943 29.5859 17.8622C29.1392 17.1945 28.4679 16.3043 27.5764 15.4193C25.7851 13.6407 23.2336 12 19.8849 12C14.4604 12 10.0571 16.5591 9.99984 22.1214M33.7863 18.8993C33.7868 18.8985 33.7876 18.8969 33.7887 18.8947C33.7925 18.8874 33.8 18.873 33.8112 18.852C33.8337 18.8099 33.8711 18.7412 33.9234 18.6499C34.0281 18.4669 34.1917 18.1943 34.414 17.8622C34.8607 17.1945 35.532 16.3043 36.4235 15.4193C38.2148 13.6407 40.7663 12 44.1149 12C49.5395 12 53.9427 16.559 54 22.1212C54.1247 34.6203 44.0865 43.796 32.0017 51.999L31.9999 52.0002L31.9981 51.9989C19.9122 43.796 9.87429 34.6205 9.99984 22.1218" fill="#00B8C4"/>
</svg>
