<svg width="128" height="128" viewBox="0 0 128 128" fill="none" xmlns="http://www.w3.org/2000/svg">
<path d="M115.787 46.4533C122.453 39.7866 119.413 31.9999 115.787 28.2133L99.7866 12.2133C93.0666 5.54661 85.3333 8.58661 81.5466 12.2133L72.4799 21.3333H58.6666C48.5333 21.3333 42.6666 26.6666 39.6799 32.7999L15.9999 56.4799V77.8133L12.2133 81.5466C5.54661 88.2666 8.58661 95.9999 12.2133 99.7866L28.2133 115.787C31.0933 118.667 34.1866 119.733 37.1199 119.733C40.9066 119.733 44.3733 117.867 46.4533 115.787L60.8533 101.333H79.9999C89.0666 101.333 93.6533 95.6799 95.3066 90.1333C101.333 88.5333 104.64 83.9466 105.973 79.4666C114.24 77.3333 117.333 69.4933 117.333 63.9999V47.9999H114.187L115.787 46.4533ZM106.667 63.9999C106.667 66.3999 105.653 69.3333 101.333 69.3333H95.9999V74.6666C95.9999 77.0666 94.9866 79.9999 90.6666 79.9999H85.3333V85.3333C85.3333 87.7333 84.3199 90.6666 79.9999 90.6666H56.4799L38.9866 108.16C37.3333 109.707 36.3733 108.8 35.7866 108.213L19.8399 92.3199C18.2933 90.6666 19.1999 89.7066 19.7866 89.1199L26.6666 82.1866V60.8533L37.3333 50.1866V58.6666C37.3333 65.1199 41.5999 74.6666 53.3333 74.6666C65.0666 74.6666 69.3333 65.1199 69.3333 58.6666H106.667V63.9999ZM108.213 38.8799L99.1466 47.9999H58.6666V58.6666C58.6666 61.0666 57.6533 63.9999 53.3333 63.9999C49.0133 63.9999 47.9999 61.0666 47.9999 58.6666V42.6666C47.9999 40.2133 48.9066 31.9999 58.6666 31.9999H76.8533L89.0133 19.8399C90.6666 18.2933 91.6266 19.1999 92.2133 19.7866L108.16 35.6799C109.707 37.3333 108.8 38.2933 108.213 38.8799Z" fill="white"/>
</svg>
