<svg width="128" height="128" viewBox="0 0 128 128" fill="none" xmlns="http://www.w3.org/2000/svg">
<path d="M0 16C0 13.8783 0.842855 11.8434 2.34315 10.3431C3.84344 8.84285 5.87827 8 8 8H120C122.122 8 124.157 8.84285 125.657 10.3431C127.157 11.8434 128 13.8783 128 16V32C128 34.1217 127.157 36.1566 125.657 37.6569C124.157 39.1571 122.122 40 120 40V100C120 105.304 117.893 110.391 114.142 114.142C110.391 117.893 105.304 120 100 120H28C22.6957 120 17.6086 117.893 13.8579 114.142C10.1071 110.391 8 105.304 8 100V40C5.87827 40 3.84344 39.1571 2.34315 37.6569C0.842855 36.1566 0 34.1217 0 32V16ZM16 40V100C16 103.183 17.2643 106.235 19.5147 108.485C21.7652 110.736 24.8174 112 28 112H100C103.183 112 106.235 110.736 108.485 108.485C110.736 106.235 112 103.183 112 100V40H16ZM120 16H8V32H120V16ZM40 60C40 58.9391 40.4214 57.9217 41.1716 57.1716C41.9217 56.4214 42.9391 56 44 56H84C85.0609 56 86.0783 56.4214 86.8284 57.1716C87.5786 57.9217 88 58.9391 88 60C88 61.0609 87.5786 62.0783 86.8284 62.8284C86.0783 63.5786 85.0609 64 84 64H44C42.9391 64 41.9217 63.5786 41.1716 62.8284C40.4214 62.0783 40 61.0609 40 60Z" fill="white"/>
</svg>
