<svg width="66" height="68" viewBox="0 0 66 68" fill="none" xmlns="http://www.w3.org/2000/svg">
<path d="M58.3333 25.6522V53.4783M15.6667 25.6522V53.4783M7.66667 25.6522V53.4783M50.3333 25.6522V53.4783M6.33333 59.0435H59.6667M1 66H65M33 31.2174H30.3333C29.6261 31.2174 28.9478 31.5106 28.4477 32.0324C27.9476 32.5542 27.6667 33.262 27.6667 34V35.0435C27.6667 35.6456 27.8538 36.2314 28.2 36.713C28.5462 37.1947 29.0328 37.5462 29.5867 37.7148L36.4133 39.7934C36.9672 39.962 37.4538 40.3135 37.8 40.7951C38.1462 41.2768 38.3333 41.8626 38.3333 42.4647V45.1304C38.3333 45.8684 38.0524 46.5762 37.5523 47.098C37.0522 47.6199 36.3739 47.913 35.6667 47.913H33M33 31.2174H35.6667C36.3739 31.2174 37.0522 31.5106 37.5523 32.0324C38.0524 32.5542 38.3333 33.262 38.3333 34V35.3913M33 31.2174V25.6522M33 47.913H30.3333C29.6261 47.913 28.9478 47.6199 28.4477 47.098C27.9476 46.5762 27.6667 45.8684 27.6667 45.1304V43.7391M33 47.913V53.4783M63.6667 18V20.087H2.33333V18C15.6667 13.1304 23.6667 8.95652 32.3333 2H33.6667C42.3333 8.95652 50.3333 13.1304 63.6667 18Z" stroke="#00B8C4" stroke-width="3"/>
</svg>
