<svg width="64" height="64" viewBox="0 0 64 64" fill="none" xmlns="http://www.w3.org/2000/svg">
<path fill-rule="evenodd" clip-rule="evenodd" d="M30.5179 20.2258C31.4826 19.9247 32.5162 19.9247 33.4809 20.2258L33.5536 20.2485L56.9762 29.5685C57.8497 29.8721 59.0296 30.5344 59.5851 31.8565L59.5868 31.8605L59.5885 31.8645C59.9214 32.6666 60.2523 33.9691 59.7214 35.2731L53.8843 50.167L53.8789 50.1804C53.6443 50.7543 53.2338 51.2391 52.7064 51.565C52.1836 51.8881 51.5726 52.0386 50.9597 51.9954C47.3926 51.7683 44.2908 50.1137 41.8921 48.0392C39.304 50.2811 35.9112 52 32 52C28.0911 52 24.6829 50.283 22.0905 48.0438C19.6908 50.1177 16.5886 51.7686 13.022 51.9955C12.4072 52.0383 11.7945 51.8864 11.2708 51.5611C10.7431 51.2333 10.3331 50.7464 10.0999 50.1705L10.0953 50.159L4.25825 35.212L4.24384 35.1696C3.78977 33.8332 4.05995 32.7289 4.41591 31.8731C4.96253 30.559 6.14431 29.871 7.06048 29.5673L30.4447 20.2487L30.5179 20.2258ZM31.7634 24.0291L8.40779 33.3363L8.33446 33.3592C8.27589 33.3775 8.22186 33.3994 8.17518 33.4228C8.13278 33.4441 8.10178 33.4638 8.08114 33.479C8.02294 33.6291 8.00987 33.7029 8.00644 33.7373C8.0047 33.7549 8.00486 33.7686 8.00663 33.7839C8.00808 33.7963 8.01164 33.8187 8.02179 33.8532L13.517 47.9249C15.9581 47.5675 18.2112 46.2521 20.0532 44.4916L20.0594 44.4857L20.0656 44.4799C20.614 43.9647 21.3382 43.6778 22.0907 43.6778C22.8431 43.6778 23.5673 43.9647 24.1157 44.4799L24.1226 44.4864L24.1295 44.493C26.2927 46.5644 29.0361 48 32 48C34.9608 48 37.6851 46.5672 39.8502 44.4895L39.8581 44.4819L39.8661 44.4744C40.4146 43.9594 41.1388 43.6727 41.8913 43.6727C42.6437 43.6727 43.3679 43.9594 43.9165 44.4744L43.9232 44.4807L43.9298 44.487C45.7729 46.2496 48.0263 47.5674 50.4668 47.925L56 33.8065C55.9999 33.7977 55.9993 33.7853 55.9978 33.769C55.9911 33.6989 55.969 33.5969 55.9231 33.4721C55.8754 33.438 55.785 33.3875 55.6478 33.3416L55.5949 33.3239L32.2357 24.0292C32.0807 23.9903 31.9185 23.9903 31.7634 24.0291Z" fill="#00B8C4"/>
<path d="M51.9999 59.1424C51.9999 58.989 51.9585 58.8384 51.8802 58.7064C51.8019 58.5745 51.6896 58.466 51.5549 58.3924C48.1699 56.5737 45.0837 53.7899 43.7262 52.3924C43.5245 52.1809 43.2554 52.0464 42.9651 52.0119C42.6749 51.9775 42.3818 52.0453 42.1362 52.2037C35.8449 56.2562 28.1849 56.2587 21.8924 52.2099C21.6447 52.05 21.3487 51.9819 21.0559 52.0175C20.7631 52.0531 20.4921 52.1902 20.2899 52.4049C18.9437 53.8149 15.8912 56.5674 12.4862 58.3737C12.3511 58.4421 12.2356 58.5437 12.1505 58.669C12.0655 58.7943 12.0137 58.9391 11.9999 59.0899C11.9898 59.2184 12.0093 59.3475 12.057 59.4673C12.1046 59.587 12.1792 59.6942 12.2748 59.7806C12.3705 59.867 12.4847 59.9302 12.6087 59.9654C12.7327 60.0006 12.8631 60.0069 12.9899 59.9837C15.5962 59.4612 18.1149 58.2737 20.5149 57.0049C20.6689 56.9239 20.84 56.8809 21.014 56.8796C21.188 56.8783 21.3598 56.9187 21.5149 56.9974C24.7652 58.6513 28.3603 59.5135 32.0071 59.514C35.654 59.5144 39.2493 58.653 42.4999 56.9999C42.6569 56.9204 42.8305 56.8796 43.0065 56.8809C43.1824 56.8822 43.3554 56.9256 43.5112 57.0074C45.8987 58.2574 48.4137 59.4562 51.0112 59.9824C51.1335 60.0052 51.2594 60.0006 51.3797 59.9688C51.5 59.937 51.6117 59.8788 51.7068 59.7986C51.8019 59.7183 51.878 59.6179 51.9295 59.5047C51.9811 59.3914 52.0068 59.2681 52.0049 59.1437L51.9999 59.1424Z" fill="#00B8C4"/>
<path fill-rule="evenodd" clip-rule="evenodd" d="M26.9942 4.00001L27 4H37L37.0058 4.00001C38.3292 4.00385 39.5972 4.53126 40.533 5.46702C41.4687 6.40278 41.9961 7.67083 42 8.99419L42 9V12C42 13.1046 41.1046 14 40 14C38.8954 14 38 13.1046 38 12V9.00365C37.9987 8.73791 37.8925 8.48339 37.7046 8.29544C37.5166 8.10749 37.2621 8.00133 36.9963 8H27.0037C26.7379 8.00133 26.4834 8.10749 26.2954 8.29544C26.1075 8.4834 26.0013 8.73792 26 9.00367V12C26 13.1046 25.1046 14 24 14C22.8954 14 22 13.1046 22 12V9L22 8.99419C22.0039 7.67083 22.5313 6.40278 23.467 5.46702C24.4028 4.53126 25.6708 4.00385 26.9942 4.00001Z" fill="#00B8C4"/>
<path fill-rule="evenodd" clip-rule="evenodd" d="M17.9942 10L18 10H46L46.0058 10C48.1241 10.0062 50.1539 10.8504 51.6518 12.3482C53.1496 13.8461 53.9938 15.8759 54 17.9942L54 18V29.125C54 30.2296 53.1046 31.125 52 31.125C50.8954 31.125 50 30.2296 50 29.125V18.0034C49.9963 16.9428 49.5733 15.9267 48.8233 15.1767C48.0734 14.4267 47.0573 14.0038 45.9968 14H18.0032C16.9427 14.0038 15.9266 14.4267 15.1767 15.1767C14.4267 15.9266 14.0038 16.9427 14 18.0032V29.5C14 30.6046 13.1046 31.5 12 31.5C10.8954 31.5 10 30.6046 10 29.5V18L10 17.9942C10.0062 15.8759 10.8504 13.8461 12.3482 12.3482C13.8461 10.8504 15.8759 10.0062 17.9942 10Z" fill="#00B8C4"/>
<path fill-rule="evenodd" clip-rule="evenodd" d="M32 20.95C33.1046 20.95 34 21.8454 34 22.95V49.5562C34 50.6608 33.1046 51.5562 32 51.5562C30.8954 51.5562 30 50.6608 30 49.5562V22.95C30 21.8454 30.8954 20.95 32 20.95Z" fill="#00B8C4"/>
</svg>
