<svg width="12" height="12" viewBox="0 0 12 12" fill="none" xmlns="http://www.w3.org/2000/svg">
<path d="M1.49998 9.5003H10.5C10.5911 9.50001 10.6804 9.47488 10.7583 9.42761C10.8362 9.38034 10.8998 9.31271 10.9421 9.23202C10.9844 9.15133 11.0039 9.06062 10.9985 8.96966C10.9931 8.87869 10.963 8.79093 10.9115 8.7158L6.41148 2.2158C6.22498 1.9463 5.77598 1.9463 5.58898 2.2158L1.08898 8.7158C1.03689 8.79077 1.00635 8.87858 1.00066 8.96969C0.99498 9.06081 1.01437 9.15174 1.05674 9.2326C1.0991 9.31346 1.16282 9.38117 1.24096 9.42837C1.31911 9.47556 1.40869 9.50044 1.49998 9.5003Z" fill="#00B8C4"/>
</svg>
