<svg width="128" height="128" viewBox="0 0 128 128" fill="none" xmlns="http://www.w3.org/2000/svg">
<path d="M48 100C45.048 100 42.496 101.62 41.108 104H18.588L29.18 83.632C30.088 83.852 31.024 84 32 84C38.616 84 44 78.616 44 72C44 65.384 38.616 60 32 60C25.384 60 20 65.384 20 72C20 74.716 20.94 77.192 22.464 79.204L8.45199 106.16C8.13625 106.769 7.98266 107.45 8.00597 108.136C8.02928 108.822 8.22872 109.49 8.58511 110.077C8.94149 110.663 9.44282 111.149 10.0409 111.485C10.6389 111.822 11.3136 111.999 12 112H41.108C42.496 114.38 45.048 116 48 116C50.1217 116 52.1566 115.157 53.6568 113.657C55.1571 112.157 56 110.122 56 108C56 105.878 55.1571 103.843 53.6568 102.343C52.1566 100.843 50.1217 100 48 100ZM32 68C33.0299 68.0461 34.0024 68.4876 34.7149 69.2327C35.4274 69.9778 35.8251 70.969 35.8251 72C35.8251 73.031 35.4274 74.0222 34.7149 74.7673C34.0024 75.5124 33.0299 75.9539 32 76C30.9391 76 29.9217 75.5786 29.1716 74.8284C28.4214 74.0783 28 73.0609 28 72C28 70.9391 28.4214 69.9217 29.1716 69.1716C29.9217 68.4214 30.9391 68 32 68ZM119.548 106.156L103.388 75.072C104.047 73.4869 104.179 71.7318 103.764 70.066C103.349 68.4002 102.409 66.9121 101.083 65.8216C99.7575 64.731 98.116 64.0959 96.4015 64.01C94.6869 63.9241 92.9902 64.3921 91.5621 65.3447C90.1339 66.2973 89.0501 67.6841 88.4707 69.3001C87.8913 70.9161 87.8471 72.6756 88.3447 74.3186C88.8422 75.9616 89.8551 77.401 91.2336 78.4241C92.6122 79.4472 94.2833 79.9997 96 80C96.3 80 96.588 79.944 96.88 79.908L109.412 104H91.264C90.4422 101.667 88.9182 99.6451 86.9014 98.2127C84.8845 96.7803 82.4737 96.0073 80 96C73.384 96 68 101.384 68 108C68 114.616 73.384 120 80 120C82.4737 119.993 84.8845 119.22 86.9014 117.787C88.9182 116.355 90.4422 114.333 91.264 112H116C116.687 112 117.363 111.823 117.962 111.486C118.562 111.149 119.064 110.663 119.42 110.075C119.777 109.487 119.976 108.817 119.998 108.13C120.021 107.443 119.866 106.766 119.548 106.156ZM80 112C78.9701 111.954 77.9976 111.512 77.2851 110.767C76.5726 110.022 76.1749 109.031 76.1749 108C76.1749 106.969 76.5726 105.978 77.2851 105.233C77.9976 104.488 78.9701 104.046 80 104C81.0299 104.046 82.0024 104.488 82.7149 105.233C83.4274 105.978 83.8251 106.969 83.8251 108C83.8251 109.031 83.4274 110.022 82.7149 110.767C82.0024 111.512 81.0299 111.954 80 112ZM84 32C83.0487 32.0097 82.1019 32.1332 81.18 32.368L67.548 6.16C66.86 4.828 65.428 4 64 4C62.572 4 61.14 4.828 60.452 6.156L44.88 36.092C44.592 36.056 44.304 36 44 36C42.2831 35.9994 40.6116 36.5512 39.2325 37.5738C37.8533 38.5964 36.8398 40.0355 36.3416 41.6785C35.8433 43.3215 35.8869 45.0812 36.4659 46.6976C37.0448 48.3139 38.1283 49.7011 39.5564 50.6542C40.9845 51.6073 42.6812 52.0756 44.396 51.9901C46.1107 51.9045 47.7525 51.2696 49.0786 50.1791C50.4047 49.0886 51.3447 47.6004 51.7599 45.9345C52.1751 44.2686 52.0433 42.5133 51.384 40.928L64 16.672L74.464 36.792C72.874 38.8592 72.0082 41.3921 72 44C72 50.616 77.384 56 84 56C90.616 56 96 50.616 96 44C96 37.384 90.616 32 84 32ZM84 48C82.9701 47.9539 81.9976 47.5124 81.2851 46.7673C80.5726 46.0222 80.1749 45.0309 80.1749 44C80.1749 42.9691 80.5726 41.9778 81.2851 41.2327C81.9976 40.4876 82.9701 40.0461 84 40C85.0299 40.0461 86.0024 40.4876 86.7149 41.2327C87.4274 41.9778 87.8251 42.9691 87.8251 44C87.8251 45.0309 87.4274 46.0222 86.7149 46.7673C86.0024 47.5124 85.0299 47.9539 84 48Z" fill="white"/>
</svg>
