<svg width="40" height="40" viewBox="0 0 40 40" fill="none" xmlns="http://www.w3.org/2000/svg">
<path d="M16.9998 22L15.2498 20.25C15.4721 19.9444 15.6248 19.6319 15.7082 19.3125C15.7915 18.9931 15.8332 18.6667 15.8332 18.3333C15.8332 18 15.7915 17.6736 15.7082 17.3542C15.6248 17.0347 15.4721 16.7361 15.2498 16.4583L16.9998 14.6667C17.4443 15.1944 17.7776 15.7778 17.9998 16.4167C18.2221 17.0556 18.3332 17.6944 18.3332 18.3333C18.3332 18.9722 18.2221 19.6042 17.9998 20.2292C17.7776 20.8542 17.4443 21.4444 16.9998 22ZM20.5415 25.5833L18.7498 23.7917C19.4443 23.0139 19.9651 22.1528 20.3123 21.2083C20.6596 20.2639 20.8332 19.3056 20.8332 18.3333C20.8332 17.3611 20.6596 16.4097 20.3123 15.4792C19.9651 14.5486 19.4443 13.6944 18.7498 12.9167L20.5415 11.125C21.4859 12.1528 22.1873 13.2847 22.6457 14.5208C23.104 15.7569 23.3332 17.0278 23.3332 18.3333C23.3332 19.6389 23.104 20.9167 22.6457 22.1667C22.1873 23.4167 21.4859 24.5556 20.5415 25.5833ZM8.33317 20C7.4165 20 6.63178 19.6736 5.979 19.0208C5.32623 18.3681 4.99984 17.5833 4.99984 16.6667C4.99984 15.75 5.32623 14.9653 5.979 14.3125C6.63178 13.6597 7.4165 13.3333 8.33317 13.3333C9.24984 13.3333 10.0346 13.6597 10.6873 14.3125C11.3401 14.9653 11.6665 15.75 11.6665 16.6667C11.6665 17.5833 11.3401 18.3681 10.6873 19.0208C10.0346 19.6736 9.24984 20 8.33317 20ZM1.6665 26.6667V25.7083C1.6665 25.0417 1.84706 24.4306 2.20817 23.875C2.56928 23.3194 3.06928 22.9028 3.70817 22.625C4.43039 22.3194 5.17345 22.0833 5.93734 21.9167C6.70123 21.75 7.49984 21.6667 8.33317 21.6667C9.1665 21.6667 9.96512 21.75 10.729 21.9167C11.4929 22.0833 12.2359 22.3194 12.9582 22.625C13.5971 22.9028 14.0971 23.3194 14.4582 23.875C14.8193 24.4306 14.9998 25.0417 14.9998 25.7083V26.6667H1.6665ZM31.6665 20C30.7498 20 29.9651 19.6736 29.3123 19.0208C28.6596 18.3681 28.3332 17.5833 28.3332 16.6667C28.3332 15.75 28.6596 14.9653 29.3123 14.3125C29.9651 13.6597 30.7498 13.3333 31.6665 13.3333C32.5832 13.3333 33.3679 13.6597 34.0207 14.3125C34.6734 14.9653 34.9998 15.75 34.9998 16.6667C34.9998 17.5833 34.6734 18.3681 34.0207 19.0208C33.3679 19.6736 32.5832 20 31.6665 20ZM24.9998 26.6667V25.7083C24.9998 25.0417 25.1804 24.4306 25.5415 23.875C25.9026 23.3194 26.4026 22.9028 27.0415 22.625C27.7637 22.3194 28.5068 22.0833 29.2707 21.9167C30.0346 21.75 30.8332 21.6667 31.6665 21.6667C32.4998 21.6667 33.2984 21.75 34.0623 21.9167C34.8262 22.0833 35.5693 22.3194 36.2915 22.625C36.9304 22.9028 37.4304 23.3194 37.7915 23.875C38.1526 24.4306 38.3332 25.0417 38.3332 25.7083V26.6667H24.9998Z" fill="#A1A1AA"/>
</svg>
