<svg width="64" height="64" viewBox="0 0 64 64" fill="none" xmlns="http://www.w3.org/2000/svg">
<path d="M17.0666 21.3333C17.9503 21.3333 18.6666 20.617 18.6666 19.7333V9.6C18.6666 8.71635 19.383 8 20.2666 8H43.7333C44.617 8 45.3333 8.71635 45.3333 9.6V19.7333C45.3333 20.617 46.0496 21.3333 46.9333 21.3333H51.7333C52.617 21.3333 53.3333 22.0497 53.3333 22.9333V54.4C53.3333 55.2837 52.617 56 51.7333 56H12.2666C11.383 56 10.6666 55.2837 10.6666 54.4V22.9333C10.6666 22.0497 11.383 21.3333 12.2666 21.3333H17.0666Z" stroke="#00B8C4" stroke-width="3"/>
<path d="M31.9791 21.3333V26.6667M26.6458 21.3333H31.9791H26.6458ZM37.3124 21.3333H31.9791H37.3124ZM31.9791 21.3333V16V21.3333Z" stroke="#00B8C4" stroke-width="3" stroke-linecap="round" stroke-linejoin="round"/>
<path d="M42.6667 45.3599L42.6934 45.3303" stroke="#00B8C4" stroke-width="1.5" stroke-linecap="round" stroke-linejoin="round"/>
<path d="M42.6667 34.6934L42.6934 34.6638" stroke="#00B8C4" stroke-width="1.5" stroke-linecap="round" stroke-linejoin="round"/>
<path d="M32 34.6934L32.0267 34.6638" stroke="#00B8C4" stroke-width="1.5" stroke-linecap="round" stroke-linejoin="round"/>
<path d="M21.3333 34.6934L21.3599 34.6638" stroke="#00B8C4" stroke-width="1.5" stroke-linecap="round" stroke-linejoin="round"/>
<path d="M21.3333 45.3599L21.3599 45.3303" stroke="#00B8C4" stroke-width="1.5" stroke-linecap="round" stroke-linejoin="round"/>
<path d="M32 45.3599L32.0267 45.3303" stroke="#00B8C4" stroke-width="1.5" stroke-linecap="round" stroke-linejoin="round"/>
</svg>
