<svg width="40" height="40" viewBox="0 0 40 40" fill="none" xmlns="http://www.w3.org/2000/svg">
<path d="M17.0938 15.7891L24.5312 20.0156L17.0938 24.2422V15.7891ZM37.5 6.25V33.75C37.5 35.8203 35.8203 37.5 33.75 37.5H6.25C4.17969 37.5 2.5 35.8203 2.5 33.75V6.25C2.5 4.17969 4.17969 2.5 6.25 2.5H33.75C35.8203 2.5 37.5 4.17969 37.5 6.25ZM34.2188 20.0234C34.2188 20.0234 34.2188 15.3672 33.625 13.1328C33.2969 11.8984 32.3359 10.9297 31.1094 10.6016C28.8984 10 20 10 20 10C20 10 11.1016 10 8.89062 10.6016C7.66406 10.9297 6.70312 11.8984 6.375 13.1328C5.78125 15.3594 5.78125 20.0234 5.78125 20.0234C5.78125 20.0234 5.78125 24.6797 6.375 26.9141C6.70312 28.1484 7.66406 29.0781 8.89062 29.4062C11.1016 30 20 30 20 30C20 30 28.8984 30 31.1094 29.3984C32.3359 29.0703 33.2969 28.1406 33.625 26.9062C34.2188 24.6797 34.2188 20.0234 34.2188 20.0234Z" fill="white"/>
</svg>
