<svg width="40" height="40" viewBox="0 0 40 40" fill="none" xmlns="http://www.w3.org/2000/svg">
<path d="M8.3335 34.9999V31.6666H16.6668V28.3333C14.3613 28.3333 12.396 27.5208 10.771 25.8958C9.146 24.2708 8.3335 22.3055 8.3335 19.9999C8.3335 18.3055 8.79877 16.7638 9.72933 15.3749C10.6599 13.986 11.9168 12.9721 13.5002 12.3333C13.7224 11.3888 14.2154 10.6249 14.9793 10.0416C15.7432 9.45825 16.6113 9.16659 17.5835 9.16659L16.6668 6.58325L18.2502 5.99992L17.6668 4.49992L20.8335 3.33325L21.3335 4.91659L22.9168 4.33325L27.5002 16.8333L25.9168 17.4166L26.5002 18.9999L23.3335 20.1666L22.8335 18.5833L21.2502 19.1666L20.2502 16.4166C19.8335 16.8055 19.3543 17.0971 18.8127 17.2916C18.271 17.486 17.7224 17.5555 17.1668 17.4999C16.5557 17.4444 15.9863 17.2569 15.4585 16.9374C14.9307 16.618 14.4724 16.2221 14.0835 15.7499C13.3335 16.1944 12.7432 16.7916 12.3127 17.5416C11.8821 18.2916 11.6668 19.111 11.6668 19.9999C11.6668 21.3888 12.1529 22.5694 13.1252 23.5416C14.0974 24.5138 15.2779 24.9999 16.6668 24.9999H30.0002V28.3333H21.6668V31.6666H31.6668V34.9999H8.3335ZM22.7502 15.9166L24.2502 15.3333L21.4168 7.49992L19.8335 8.08325L22.7502 15.9166ZM17.5002 14.9999C17.9724 14.9999 18.3682 14.8402 18.6877 14.5208C19.0071 14.2013 19.1668 13.8055 19.1668 13.3333C19.1668 12.861 19.0071 12.4652 18.6877 12.1458C18.3682 11.8263 17.9724 11.6666 17.5002 11.6666C17.0279 11.6666 16.6321 11.8263 16.3127 12.1458C15.9932 12.4652 15.8335 12.861 15.8335 13.3333C15.8335 13.8055 15.9932 14.2013 16.3127 14.5208C16.6321 14.8402 17.0279 14.9999 17.5002 14.9999Z" fill="#A1A1AA"/>
</svg>
