<svg width="1250" height="196" viewBox="0 0 1250 196" fill="none" xmlns="http://www.w3.org/2000/svg">
<path d="M1250 195.968C1248.69 166.363 1231.45 137.462 1204.18 120.16C1174.45 101.288 1140.72 101.865 1106.63 113.592C1088.65 78.8921 1045.16 57.7774 1001.95 56.1113C958.748 54.4452 925.274 68.6712 890.347 91.1636C864.86 61.0456 815.265 52.3626 778.087 70.6897C756.557 28.4283 705.11 -0.568278 652.611 0.00845054C600.112 0.585179 541.44 33.0742 521.072 75.7842C499.434 60.1484 470.134 53.0675 442.469 56.7521C414.803 60.4368 390.695 74.7268 375.265 95.3289C354.316 82.5447 326.687 78.7639 302.325 85.3322C278 91.9005 261.008 112.15 251.75 133.073C199.069 109.907 134.298 109.427 81.1453 131.759C47.8884 145.761 19.6056 168.509 0 196H1250V195.968Z" fill="white"/>
</svg>
