<svg width="64" height="64" viewBox="0 0 64 64" fill="none" xmlns="http://www.w3.org/2000/svg">
<path d="M42 32C39.425 32 36.95 30.85 35 28.775C33.1125 26.75 31.95 24.0375 31.75 21.15C31.5375 18.075 32.475 15.2375 34.3875 13.175C36.3 11.125 39 10 42 10C44.975 10 47.675 11.1375 49.5875 13.1875C51.525 15.2625 52.4625 18.0875 52.2375 21.1375C52.025 24.025 50.875 26.7375 48.9875 28.7625C47.05 30.85 44.575 32 42 32ZM42 14C40.125 14 38.4625 14.675 37.325 15.9C36.15 17.1625 35.6125 18.875 35.75 20.8625C35.8875 22.8375 36.6625 24.6875 37.9375 26.05C39.1125 27.3125 40.5625 28 42 28C43.45 28 44.8875 27.3 46.0625 26.05C47.3375 24.6875 48.1125 22.85 48.25 20.8625C48.3875 18.9375 47.8251 17.175 46.6501 15.925C45.5126 14.675 43.85 14 42 14Z" fill="#00B8C4"/>
<path d="M58.4751 54H25.5251C24.4376 54 23.4376 53.5125 22.7751 52.6625C22.0876 51.775 21.8376 50.575 22.1126 49.4375C23.1626 45.2125 25.7751 41.7125 29.6501 39.3C33.0876 37.1625 37.4751 35.9875 41.9876 35.9875C46.5876 35.9875 50.8626 37.1125 54.3251 39.25C58.2126 41.6375 60.8251 45.1625 61.8751 49.4375C62.1501 50.575 61.9001 51.775 61.2126 52.6625C60.5626 53.5125 59.5626 54 58.4751 54ZM26.1126 50H57.9001C55.8376 42.625 48.1001 40 42.0001 40C35.9251 40 28.2001 42.625 26.1126 50Z" fill="#00B8C4"/>
<path d="M18.3751 32.5C13.9751 32.5 10.1126 28.4125 9.75011 23.3875C9.56261 20.8125 10.3626 18.4375 11.9876 16.6875C13.6001 14.9625 15.8626 14.0125 18.3626 14.0125C20.8501 14.0125 23.1126 14.975 24.7251 16.7125C26.3626 18.475 27.1626 20.85 26.9751 23.4C26.6376 28.4125 22.7626 32.5 18.3751 32.5ZM18.3751 18C17.0001 18 15.7751 18.5 14.9251 19.4125C14.0501 20.35 13.6376 21.625 13.7501 23.1C13.9626 26.025 16.0751 28.5 18.3751 28.5C20.6751 28.5 22.8001 26.025 23.0001 23.1C23.1001 21.6625 22.6751 20.3625 21.8126 19.425C20.9626 18.5 19.7376 18 18.3751 18Z" fill="#00B8C4"/>
<path d="M19.2501 50H5.2126C4.2251 50 3.3126 49.5499 2.7001 48.7874C2.0751 47.9874 1.8501 46.8874 2.1001 45.8624C2.9626 42.3749 5.1126 39.5 8.3001 37.525C11.1126 35.7875 14.6876 34.825 18.3626 34.825C21.5126 34.825 24.2001 35.35 26.5751 36.4375C27.5751 36.9 28.0251 38.0875 27.5626 39.0875C27.1001 40.0875 25.9126 40.5375 24.9126 40.075C23.0751 39.2375 20.9376 38.825 18.3751 38.825C13.8126 38.825 8.0501 40.725 6.2251 46.0125H19.2501C20.3501 46.0125 21.2501 46.9125 21.2501 48.0125C21.2501 49.1125 20.3501 50 19.2501 50Z" fill="#00B8C4"/>
</svg>
