<svg width="24" height="25" viewBox="0 0 24 25" fill="none" xmlns="http://www.w3.org/2000/svg">
<path d="M19.2902 10.6069C19.3142 7.71494 16.8512 5.06394 13.8002 4.69694C13.7343 4.68872 13.6686 4.67872 13.6032 4.66694C13.4498 4.63758 13.2943 4.62086 13.1382 4.61694C12.5122 4.61694 12.3452 5.05694 12.3012 5.31794C12.2582 5.57294 12.2992 5.78794 12.4222 5.95494C12.6292 6.23594 12.9942 6.28594 13.2872 6.32594C13.3722 6.33794 13.4532 6.34894 13.5212 6.36394C16.2632 6.97694 17.1862 7.93994 17.6372 10.6589C17.6482 10.7249 17.6532 10.8069 17.6592 10.8939C17.6792 11.2189 17.7192 11.8949 18.4462 11.8949C18.5062 11.8949 18.5722 11.8899 18.6402 11.8799C19.3162 11.7769 19.2952 11.1589 19.2852 10.8619C19.2822 10.7779 19.2792 10.6989 19.2872 10.6459C19.2888 10.6327 19.2895 10.6193 19.2892 10.6059L19.2902 10.6069Z" fill="white"/>
<path d="M12.96 3.636C13.042 3.642 13.118 3.648 13.182 3.657C17.685 4.35 19.756 6.483 20.329 11.021C20.339 11.098 20.341 11.192 20.342 11.291C20.348 11.646 20.36 12.384 21.152 12.399H21.176C21.425 12.399 21.622 12.324 21.764 12.176C22.01 11.919 21.994 11.536 21.979 11.228C21.976 11.152 21.973 11.081 21.973 11.018C22.031 6.378 18.013 2.169 13.377 2.013C13.357 2.013 13.339 2.013 13.321 2.016C13.3028 2.0183 13.2844 2.0193 13.266 2.019C13.219 2.019 13.163 2.015 13.102 2.011C13.03 2.006 12.947 2 12.862 2C12.124 2 11.984 2.525 11.966 2.838C11.925 3.561 12.624 3.612 12.96 3.636ZM20.112 16.886C20.0154 16.8126 19.9197 16.7379 19.825 16.662C19.333 16.266 18.81 15.902 18.305 15.549L17.99 15.329C17.342 14.874 16.76 14.653 16.21 14.653C15.468 14.653 14.822 15.063 14.288 15.87C14.052 16.228 13.765 16.402 13.412 16.402C13.1668 16.3934 12.9262 16.3331 12.706 16.225C10.616 15.277 9.12201 13.823 8.26801 11.904C7.85501 10.976 7.98901 10.37 8.71501 9.876C9.12801 9.596 9.89501 9.075 9.84201 8.076C9.78001 6.943 7.27901 3.532 6.22501 3.145C5.77443 2.98064 5.28052 2.97923 4.82901 3.141C3.61801 3.548 2.75001 4.264 2.31501 5.209C1.89501 6.123 1.91501 7.196 2.36901 8.312C3.68401 11.539 5.53201 14.353 7.86301 16.675C10.144 18.948 12.948 20.809 16.196 22.208C16.489 22.334 16.796 22.403 17.021 22.453C17.097 22.47 17.163 22.485 17.211 22.498C17.2374 22.5051 17.2647 22.5088 17.292 22.509H17.318C18.846 22.509 20.681 21.113 21.244 19.522C21.738 18.128 20.836 17.439 20.112 16.886ZM13.636 7.323C13.375 7.329 12.83 7.343 12.639 7.897C12.549 8.157 12.56 8.381 12.671 8.566C12.833 8.836 13.144 8.92 13.426 8.966C14.451 9.13 14.978 9.696 15.083 10.749C15.132 11.239 15.463 11.582 15.886 11.582C15.9181 11.582 15.9502 11.5799 15.982 11.576C16.492 11.516 16.739 11.141 16.717 10.462C16.725 9.754 16.355 8.95 15.724 8.31C15.092 7.668 14.33 7.306 13.636 7.323Z" fill="white"/>
</svg>
