<svg width="24" height="24" viewBox="0 0 24 24" fill="none" xmlns="http://www.w3.org/2000/svg">
<path fill-rule="evenodd" clip-rule="evenodd" d="M18.1441 3.61739C16.8098 2.72585 15.2411 2.25 13.6364 2.25V3L13.6364 2.25C11.4846 2.25014 9.42092 3.105 7.89936 4.62655C6.37781 6.14811 5.52295 8.21174 5.52281 10.3635V10.3636C5.52281 11.9683 5.99866 13.537 6.8902 14.8713C7.78173 16.2055 9.0489 17.2455 10.5315 17.8596C12.014 18.4737 13.6454 18.6344 15.2193 18.3213C16.7932 18.0082 18.2389 17.2355 19.3736 16.1008C20.5083 14.9661 21.281 13.5204 21.5941 11.9465C21.9072 10.3726 21.7465 8.74122 21.1324 7.25866C20.5183 5.77609 19.4783 4.50892 18.1441 3.61739ZM13.6364 3.75C11.8824 3.75012 10.2003 4.44695 8.96002 5.68721C7.71976 6.92748 7.02293 8.6096 7.02281 10.3636M13.6365 3.75C14.9445 3.75001 16.2231 4.13789 17.3107 4.86459C18.3983 5.5913 19.246 6.6242 19.7466 7.83268C20.2471 9.04116 20.3781 10.3709 20.1229 11.6538C19.8677 12.9368 19.2378 14.1152 18.3129 15.0401C17.388 15.965 16.2096 16.5949 14.9267 16.8501C13.6437 17.1053 12.314 16.9743 11.1055 16.4738C9.89701 15.9732 8.86411 15.1255 8.1374 14.0379C7.4107 12.9503 7.02282 11.6717 7.02281 10.3636" fill="#00B8C4"/>
<path fill-rule="evenodd" clip-rule="evenodd" d="M8.67291 15.3271C8.38002 15.0342 7.90514 15.0342 7.61225 15.3271L2.46959 20.4697C2.1767 20.7626 2.1767 21.2375 2.46959 21.5304C2.76249 21.8233 3.23736 21.8233 3.53025 21.5304L8.67291 16.3878C8.9658 16.0949 8.9658 15.62 8.67291 15.3271Z" fill="#00B8C4"/>
</svg>
